<svg width="14" height="14" viewBox="0 0 14 14" fill="none" xmlns="http://www.w3.org/2000/svg">
<path d="M7 6.20072C5.9641 6.20072 5.1238 7.04102 5.1238 8.07692C5.1238 9.11282 5.9641 9.95313 7 9.95313C8.0359 9.95313 8.8762 9.11282 8.8762 8.07692C8.8762 7.93389 8.85727 7.79507 8.82572 7.6615C10.1992 6.064 12.3257 3.5731 13.4615 2.15385C13.8507 1.66797 13.4226 1.20838 12.9231 1.61538C11.4896 2.78275 9.01398 4.89138 7.42226 6.25278C7.28658 6.22123 7.14513 6.20072 7 6.20072ZM7.53636 2.6902C7.53636 2.39311 7.29499 2.15174 6.9979 2.15174C6.7008 2.15174 6.45944 2.39311 6.45944 2.6902C6.45944 2.9873 6.7008 3.22867 6.9979 3.22867C7.29499 3.22867 7.53636 2.9873 7.53636 2.6902ZM10.7671 6.9979C10.7671 7.29499 11.009 7.53636 11.3056 7.53636C11.6022 7.53636 11.8441 7.29499 11.8441 6.9979C11.8441 6.7008 11.6022 6.45944 11.3056 6.45944C11.009 6.45944 10.7671 6.7008 10.7671 6.9979ZM4.84405 2.6902C4.54695 2.6902 4.30559 2.93157 4.30559 3.22867C4.30559 3.52576 4.54695 3.76713 4.84405 3.76713C5.14115 3.76713 5.38251 3.52576 5.38251 3.22867C5.38251 2.93157 5.14115 2.6902 4.84405 2.6902ZM3.76713 4.84405C3.76713 4.54695 3.52576 4.30559 3.22867 4.30559C2.93157 4.30559 2.6902 4.54695 2.6902 4.84405C2.6902 5.14115 2.93157 5.38251 3.22867 5.38251C3.52576 5.38251 3.76713 5.14115 3.76713 4.84405ZM2.15174 6.9979C2.15174 7.29499 2.39311 7.53636 2.6902 7.53636C2.9873 7.53636 3.22867 7.29499 3.22867 6.9979C3.22867 6.7008 2.9873 6.45944 2.6902 6.45944C2.39311 6.45944 2.15174 6.7008 2.15174 6.9979ZM9.6902 3.22867C9.6902 2.93157 9.44832 2.6902 9.15174 2.6902C8.85517 2.6902 8.61328 2.93157 8.61328 3.22867C8.61328 3.52576 8.85517 3.76713 9.15174 3.76713C9.44832 3.76713 9.6902 3.52576 9.6902 3.22867ZM13.3416 4.05004L12.1848 5.56342C12.311 6.02088 12.3846 6.5015 12.3846 7C12.3846 9.97416 9.97312 12.3846 7 12.3846C4.02688 12.3846 1.61538 9.97416 1.61538 7C1.61538 4.02688 4.02688 1.61538 7 1.61538C8.10847 1.61538 9.13702 1.9514 9.99309 2.52562L11.3266 1.50549C10.1361 0.565284 8.63642 0 7 0C3.13401 0 0 3.13401 0 7C0 10.866 3.13401 14 7 14C10.866 14 14 10.866 14 7C14 5.94463 13.7602 4.94712 13.3416 4.05004Z" fill="black"/>
</svg>
