<svg width="13" height="17" viewBox="0 0 13 17" fill="none" xmlns="http://www.w3.org/2000/svg">
<path d="M10.0454 0C10.3446 0 10.5919 0.239772 10.631 0.550869L10.6364 0.637353L10.6359 1.27386L11.2263 1.27459C12.2054 1.27495 12.9991 2.13075 12.9994 3.18668L13 11.8973H10.0417L9.92032 11.9017C9.03963 11.9659 8.33529 12.7236 8.27312 13.6725L8.26863 13.8093V17H1.77409C0.795006 16.9998 0.00128463 16.1439 0.00103246 15.088L6.00662e-08 3.18694C-0.000252108 2.13089 0.793509 1.27459 1.77278 1.27459L2.36171 1.27386L2.36216 0.637353C2.36216 0.285356 2.62676 0 2.95318 0C3.25238 0 3.49966 0.239772 3.53879 0.550869L3.54419 0.637353L3.54374 1.27386H5.90936L5.90975 0.637353C5.90975 0.285356 6.17437 0 6.50077 0C6.79999 0 7.04727 0.239772 7.08643 0.550869L7.09179 0.637353L7.0914 1.27386H9.45389L9.45437 0.637353C9.45437 0.285356 9.71898 0 10.0454 0ZM12.6533 13.172L9.44995 16.6264L9.45066 13.8093L9.4561 13.7228C9.49164 13.44 9.69928 13.2162 9.96146 13.1777L10.0417 13.172H12.6533ZM6.104 11.8973H2.95332L2.87312 11.903C2.58464 11.9453 2.3623 12.2119 2.3623 12.5346C2.3623 12.8573 2.58464 13.124 2.87312 13.1662L2.95332 13.172H6.104L6.18422 13.1662C6.47272 13.124 6.69502 12.8573 6.69502 12.5346C6.69502 12.2119 6.47272 11.9453 6.18422 11.903L6.104 11.8973ZM10.0441 8.49805H2.95332L2.87312 8.50382C2.58464 8.54606 2.3623 8.81273 2.3623 9.1354C2.3623 9.45807 2.58464 9.72474 2.87312 9.76697L2.95332 9.77275H10.0441L10.1243 9.76697C10.4128 9.72474 10.6351 9.45807 10.6351 9.1354C10.6351 8.81273 10.4128 8.54606 10.1243 8.50382L10.0441 8.49805ZM10.0441 5.09883H2.95332L2.87312 5.10465C2.58464 5.14685 2.3623 5.41351 2.3623 5.73618C2.3623 6.05885 2.58464 6.32551 2.87312 6.36771L2.95332 6.37353H10.0441L10.1243 6.36771C10.4128 6.32551 10.6351 6.05885 10.6351 5.73618C10.6351 5.41351 10.4128 5.14685 10.1243 5.10465L10.0441 5.09883Z" fill="black"/>
</svg>
