<svg width="14" height="14" viewBox="0 0 14 14" fill="none" xmlns="http://www.w3.org/2000/svg">
<path d="M13.9264 0.189969C13.9206 0.162305 13.9072 0.136843 13.8875 0.116567C13.8679 0.096291 13.8429 0.0820414 13.8154 0.0754888C11.9851 -0.372423 7.75595 1.22373 5.46466 3.51615C5.05599 3.92189 4.68343 4.3625 4.35121 4.83299C3.64464 4.77043 2.93806 4.82267 2.33587 5.08541C0.636778 5.83391 0.142083 7.78696 0.00426822 8.6271C-0.00354887 8.67309 -0.000600258 8.72026 0.0128821 8.76491C0.0263644 8.80956 0.0500128 8.85048 0.0819673 8.88443C0.113922 8.91838 0.153311 8.94445 0.197037 8.96059C0.240763 8.97673 0.287633 8.98249 0.333961 8.97743L3.06244 8.67621C3.06439 8.88211 3.0768 9.08777 3.09963 9.2924C3.11336 9.43451 3.17638 9.56731 3.27775 9.66775L4.33433 10.7228C4.43477 10.8241 4.5674 10.8872 4.70934 10.9011C4.91264 10.9238 5.11697 10.9363 5.32153 10.9383L5.02216 13.6658C5.01716 13.7122 5.02296 13.759 5.03911 13.8028C5.05525 13.8465 5.0813 13.8859 5.11521 13.9179C5.14912 13.9498 5.18996 13.9735 5.23454 13.987C5.27912 14.0006 5.32623 14.0036 5.37216 13.9958C6.20999 13.8613 8.1647 13.3662 8.90815 11.6655C9.17065 11.0628 9.22441 10.359 9.16378 9.65524C9.63498 9.32269 10.0763 8.94969 10.4829 8.54046C12.7813 6.25148 14.367 2.11299 13.9264 0.189969ZM8.1897 5.80983C7.97982 5.59989 7.83686 5.33237 7.7789 5.04111C7.72095 4.74984 7.75059 4.44791 7.8641 4.17351C7.9776 3.89912 8.16986 3.66457 8.41656 3.49956C8.66326 3.33454 8.95331 3.24646 9.25003 3.24646C9.54675 3.24646 9.8368 3.33454 10.0835 3.49956C10.3302 3.66457 10.5225 3.89912 10.636 4.17351C10.7495 4.44791 10.7791 4.74984 10.7212 5.04111C10.6632 5.33237 10.5202 5.59989 10.3104 5.80983C10.1712 5.94932 10.0059 6.05999 9.82396 6.1355C9.64202 6.21101 9.44699 6.24987 9.25003 6.24987C9.05307 6.24987 8.85804 6.21101 8.6761 6.1355C8.49416 6.05999 8.32888 5.94932 8.1897 5.80983Z" fill="black"/>
<path d="M4.26646 11.4869C4.09521 11.6587 3.82052 11.7256 3.48989 11.7828C2.74707 11.9095 2.09112 11.2671 2.22456 10.5154C2.2755 10.2305 2.42612 9.83104 2.51987 9.73721C2.54037 9.71709 2.55401 9.69103 2.55886 9.66272C2.56371 9.6344 2.55952 9.60528 2.54689 9.57948C2.53426 9.55368 2.51384 9.53252 2.48851 9.51901C2.46319 9.50549 2.43425 9.5003 2.40581 9.50418C1.99042 9.55505 1.60397 9.74355 1.30798 10.0397C0.573282 10.7757 0.503906 13.5066 0.503906 13.5066C0.503906 13.5066 3.23395 13.4372 3.96865 12.7012C4.26542 12.4052 4.45399 12.0178 4.50397 11.6014C4.51553 11.4707 4.35646 11.3928 4.26646 11.4869Z" fill="black"/>
</svg>
