<svg width="13" height="19" viewBox="0 0 13 19" fill="none" xmlns="http://www.w3.org/2000/svg">
<path d="M11.1429 0H7.42857V3.85605C8.75766 4.00551 10.0318 4.48099 11.1429 5.2421V0ZM5.57143 0H1.85714V5.2421C2.96816 4.48099 4.24234 4.00551 5.57143 3.85605V0ZM6.5 19C8.22391 19 9.87721 18.2994 11.0962 17.0523C12.3152 15.8051 13 14.1137 13 12.35C13 10.5863 12.3152 8.89486 11.0962 7.64774C9.87721 6.40062 8.22391 5.7 6.5 5.7C4.77609 5.7 3.12279 6.40062 1.90381 7.64774C0.684819 8.89486 0 10.5863 0 12.35C0 14.1137 0.684819 15.8051 1.90381 17.0523C3.12279 18.2994 4.77609 19 6.5 19ZM5.3625 10.9069L6.5 8.55L7.6375 10.9069L10.1799 11.2841L8.34043 13.1195L8.775 15.7102L6.5 14.4875L4.22593 15.7102L4.6605 13.1195L2.821 11.2841L5.3625 10.9069Z" fill="black"/>
</svg>
