<svg width="92" height="124" viewBox="0 0 92 124" fill="none" xmlns="http://www.w3.org/2000/svg">
<circle cx="46" cy="46" r="43.5" stroke="#71717A" stroke-width="5"/>
<circle cx="32.8734" cy="77.2874" r="5.99446" fill="#A5B4FC" stroke="#71717A" stroke-width="3"/>
<circle cx="47.6781" cy="80.46" r="5.99446" stroke="#71717A" stroke-width="3"/>
<circle cx="61.4261" cy="76.2301" r="5.99446" fill="#A5B4FC" stroke="#71717A" stroke-width="3"/>
<circle cx="72.0003" cy="66.7127" r="5.99446" stroke="#71717A" stroke-width="3"/>
<circle cx="50.8499" cy="66.7127" r="5.99446" fill="#A5B4FC" stroke="#71717A" stroke-width="3"/>
<circle cx="21.2425" cy="68.8277" r="5.99446" stroke="#71717A" stroke-width="3"/>
<circle cx="36.0452" cy="63.5404" r="5.99446" fill="#A5B4FC" stroke="#71717A" stroke-width="3"/>
<circle cx="24.4144" cy="55.0806" r="5.99446" fill="#A5B4FC" stroke="#71717A" stroke-width="3"/>
<circle cx="46.6214" cy="52.9657" r="5.99446" stroke="#71717A" stroke-width="3"/>
<circle cx="61.4261" cy="56.138" r="5.99446" fill="#A5B4FC" stroke="#71717A" stroke-width="3"/>
<path fill-rule="evenodd" clip-rule="evenodd" d="M46.5274 87.2412L20.0835 83.54L11.6309 123.724H81.424L72.9571 83.54L46.5274 87.2412ZM39.9527 96.2297C37.7436 96.2297 35.9527 98.0206 35.9527 100.23V114.437C35.9527 116.646 37.7436 118.437 39.9527 118.437H53.1021C55.3113 118.437 57.1021 116.646 57.1021 114.437V100.23C57.1021 98.0206 55.3113 96.2297 53.1021 96.2297H39.9527Z" fill="#71717A"/>
<path fill-rule="evenodd" clip-rule="evenodd" d="M39.125 100.46L44.7681 101.4C45.1475 100.833 45.7938 100.46 46.5273 100.46C47.2608 100.46 47.9071 100.833 48.2865 101.4L53.9296 100.46V104.69L48.2865 103.749C47.9071 104.316 47.2608 104.69 46.5273 104.69C45.7938 104.69 45.1475 104.316 44.7681 103.749L39.125 104.69V100.46Z" fill="#71717A"/>
<rect x="40.1836" y="111.034" width="12.6897" height="12.6897" rx="3" fill="#71717A"/>
</svg>
