<svg width="627" height="507" viewBox="0 0 627 507" fill="none" xmlns="http://www.w3.org/2000/svg">
<path d="M16 363.731C37.7089 377.596 29.2233 372.636 50.1754 380.242" stroke="#6366F1" stroke-width="10" stroke-linecap="round"/>
<path d="M51.3051 380.299C51.3051 380.299 14.9036 299.985 33.3709 218.312C46.4499 174.293 56.9332 146.796 89.4419 108.954" stroke="#6366F1" stroke-width="10" stroke-linecap="round"/>
<path d="M51.6484 380.105C65.4473 362.193 62.5392 365.723 71.0385 342.144" stroke="#6366F1" stroke-width="10" stroke-linecap="round"/>
<path d="M97.8982 474.872C107.842 474.872 115.902 466.808 115.902 456.861C115.902 446.914 107.842 438.851 97.8982 438.851C87.9548 438.851 79.894 446.914 79.894 456.861C79.894 466.808 87.9548 474.872 97.8982 474.872Z" fill="#6366F1" fill-opacity="0.988235"/>
<path d="M176.652 79.3084C186.596 79.3084 194.657 71.2448 194.657 61.298C194.657 51.3511 186.596 43.2876 176.652 43.2876C166.709 43.2876 158.648 51.3511 158.648 61.298C158.648 71.2448 166.709 79.3084 176.652 79.3084Z" fill="#6366F1" fill-opacity="0.988235"/>
<path d="M492.077 337.405C502.02 337.405 510.081 329.342 510.081 319.395C510.081 309.448 502.02 301.384 492.077 301.384C482.133 301.384 474.073 309.448 474.073 319.395C474.073 329.342 482.133 337.405 492.077 337.405Z" fill="#6366F1" fill-opacity="0.988235"/>
<path d="M309.514 35C286.415 46.3969 295.051 41.704 277.695 55.6943" stroke="#6366F1" stroke-width="10" stroke-linecap="round"/>
<path d="M277.062 56.6316C277.062 56.6316 364.595 67.0755 424.873 125.176C455.743 159.166 473.827 182.377 489.352 229.794" stroke="#6366F1" stroke-width="10" stroke-linecap="round"/>
<path d="M277.05 57.0258C285.221 78.1107 283.708 73.7938 299.47 93.2785" stroke="#6366F1" stroke-width="10" stroke-linecap="round"/>
<path d="M452.779 441.564C455.067 415.901 454.58 425.72 451.666 403.615" stroke="#6366F1" stroke-width="10" stroke-linecap="round"/>
<path d="M451.195 402.586C451.195 402.586 396.739 471.931 315.777 493.2C270.699 501.888 241.475 505.262 192.917 493.855" stroke="#6366F1" stroke-width="10" stroke-linecap="round"/>
<path d="M450.865 402.37C428.613 398.381 433.086 399.335 408.251 402.663" stroke="#6366F1" stroke-width="10" stroke-linecap="round"/>
<path d="M5.696 452.464L6.016 455.216L5.888 454.992C6.4 454.011 7.09333 453.243 7.968 452.688C8.864 452.133 9.89867 451.856 11.072 451.856C11.8187 451.856 12.48 451.973 13.056 452.208C13.632 452.443 14.112 452.773 14.496 453.2C14.9013 453.627 15.168 454.16 15.296 454.8L15.104 454.864C15.6587 453.947 16.3733 453.221 17.248 452.688C18.1227 452.133 19.0507 451.856 20.032 451.856C21.3547 451.856 22.4107 452.24 23.2 453.008C23.9893 453.755 24.3947 454.725 24.416 455.92V466H20.864V457.328C20.8427 456.667 20.704 456.123 20.448 455.696C20.192 455.248 19.712 455.003 19.008 454.96C18.24 454.96 17.5787 455.205 17.024 455.696C16.4693 456.165 16.032 456.784 15.712 457.552C15.4133 458.299 15.264 459.099 15.264 459.952V466H11.648V457.328C11.6267 456.667 11.4773 456.123 11.2 455.696C10.9227 455.248 10.432 455.003 9.728 454.96C8.98133 454.96 8.33067 455.205 7.776 455.696C7.22133 456.165 6.79467 456.784 6.496 457.552C6.19733 458.299 6.048 459.088 6.048 459.92V466H2.464V452.464H5.696ZM29.339 452.464H32.923V466H29.339V452.464ZM29.179 447.632C29.179 447.077 29.3923 446.619 29.819 446.256C30.267 445.893 30.747 445.712 31.259 445.712C31.771 445.712 32.2297 445.893 32.635 446.256C33.0617 446.619 33.275 447.077 33.275 447.632C33.275 448.187 33.0617 448.645 32.635 449.008C32.2297 449.349 31.771 449.52 31.259 449.52C30.747 449.52 30.267 449.339 29.819 448.976C29.3923 448.613 29.179 448.165 29.179 447.632ZM41.071 452.464L41.391 455.376L41.263 454.992C41.7323 454.053 42.4257 453.307 43.343 452.752C44.2817 452.176 45.391 451.888 46.671 451.888C47.951 451.888 49.007 452.261 49.839 453.008C50.671 453.755 51.0977 454.736 51.119 455.952V466H47.535V457.232C47.5137 456.549 47.3217 456.005 46.959 455.6C46.5963 455.173 46.0203 454.949 45.231 454.928C44.5057 454.928 43.855 455.152 43.279 455.6C42.703 456.027 42.2443 456.624 41.903 457.392C41.583 458.139 41.423 459.003 41.423 459.984V466H37.839V452.464H41.071ZM57.3378 446.512H60.9538V452.464H64.4738V455.28H60.9538V466H57.3378V455.28H55.0338V452.464H57.3378V446.512Z" fill="white"/>
<path d="M143.664 22.752C143.067 23.2427 142.331 23.6373 141.456 23.936C140.603 24.2133 139.739 24.352 138.864 24.352C137.371 24.352 136.059 24.064 134.928 23.488C133.797 22.8907 132.912 22.0693 132.272 21.024C131.653 19.9573 131.344 18.688 131.344 17.216C131.344 15.744 131.675 14.4747 132.336 13.408C133.019 12.3413 133.904 11.5307 134.992 10.976C136.101 10.4 137.275 10.112 138.512 10.112C139.643 10.112 140.645 10.272 141.52 10.592C142.395 10.8907 143.152 11.3067 143.792 11.84L142 14.176C141.659 13.8987 141.211 13.6427 140.656 13.408C140.123 13.152 139.515 13.024 138.832 13.024C138.107 13.024 137.445 13.2053 136.848 13.568C136.272 13.9307 135.803 14.432 135.44 15.072C135.099 15.6907 134.928 16.4053 134.928 17.216C134.928 17.984 135.109 18.688 135.472 19.328C135.835 19.968 136.336 20.48 136.976 20.864C137.616 21.2267 138.352 21.408 139.184 21.408C139.717 21.408 140.208 21.3333 140.656 21.184C141.125 21.0133 141.531 20.7893 141.872 20.512L143.664 22.752ZM150.571 10.464L150.891 14.304L150.763 13.76C151.147 12.9493 151.67 12.256 152.331 11.68C153.014 11.0827 153.707 10.6347 154.411 10.336C155.115 10.016 155.691 9.856 156.139 9.856L155.979 13.44C154.955 13.3547 154.059 13.5467 153.291 14.016C152.544 14.464 151.958 15.0613 151.531 15.808C151.126 16.5547 150.923 17.344 150.923 18.176V24H147.339V10.464H150.571ZM165.678 24.352C164.078 24.352 162.713 24.0427 161.582 23.424C160.451 22.8053 159.587 21.952 158.99 20.864C158.393 19.7547 158.094 18.5067 158.094 17.12C158.094 15.7547 158.435 14.528 159.118 13.44C159.801 12.352 160.718 11.488 161.87 10.848C163.043 10.1867 164.334 9.856 165.742 9.856C167.598 9.856 169.123 10.4 170.318 11.488C171.534 12.5547 172.345 14.0693 172.75 16.032L161.838 19.712L161.006 17.696L169.518 14.656L168.782 15.072C168.547 14.432 168.163 13.8773 167.63 13.408C167.118 12.9387 166.393 12.704 165.454 12.704C164.707 12.704 164.046 12.8853 163.47 13.248C162.894 13.5893 162.435 14.08 162.094 14.72C161.774 15.3387 161.614 16.0747 161.614 16.928C161.614 17.8027 161.795 18.5707 162.158 19.232C162.521 19.8933 163.011 20.4053 163.63 20.768C164.249 21.1093 164.953 21.28 165.742 21.28C166.297 21.28 166.83 21.184 167.342 20.992C167.854 20.8 168.334 20.544 168.782 20.224L170.414 22.88C169.71 23.328 168.931 23.6907 168.078 23.968C167.246 24.224 166.446 24.352 165.678 24.352ZM181.973 24.352C180.693 24.352 179.53 24.0853 178.485 23.552C177.461 23.0187 176.65 22.2293 176.053 21.184C175.455 20.1173 175.157 18.8053 175.157 17.248C175.157 15.712 175.466 14.4 176.085 13.312C176.725 12.2027 177.557 11.3493 178.581 10.752C179.626 10.1547 180.757 9.856 181.973 9.856C183.274 9.856 184.319 10.112 185.109 10.624C185.919 11.136 186.549 11.744 186.997 12.448L186.805 12.96L187.157 10.464H190.453V24H186.869V20.704L187.221 21.568C187.135 21.696 186.965 21.9093 186.709 22.208C186.453 22.4853 186.101 22.7947 185.653 23.136C185.205 23.4773 184.671 23.7653 184.053 24C183.455 24.2347 182.762 24.352 181.973 24.352ZM182.965 21.408C183.605 21.408 184.181 21.2907 184.693 21.056C185.226 20.8213 185.674 20.4907 186.037 20.064C186.421 19.6373 186.698 19.1253 186.869 18.528V15.584C186.698 15.0293 186.421 14.5493 186.037 14.144C185.653 13.7173 185.183 13.3867 184.629 13.152C184.095 12.9173 183.498 12.8 182.837 12.8C182.111 12.8 181.439 12.9813 180.821 13.344C180.202 13.7067 179.701 14.208 179.317 14.848C178.954 15.488 178.773 16.224 178.773 17.056C178.773 17.8667 178.965 18.6027 179.349 19.264C179.733 19.9253 180.245 20.448 180.885 20.832C181.525 21.216 182.218 21.408 182.965 21.408ZM196.682 4.512H200.298V10.464H203.818V13.28H200.298V24H196.682V13.28H194.378V10.464H196.682V4.512ZM213.803 24.352C212.203 24.352 210.838 24.0427 209.707 23.424C208.576 22.8053 207.712 21.952 207.115 20.864C206.518 19.7547 206.219 18.5067 206.219 17.12C206.219 15.7547 206.56 14.528 207.243 13.44C207.926 12.352 208.843 11.488 209.995 10.848C211.168 10.1867 212.459 9.856 213.867 9.856C215.723 9.856 217.248 10.4 218.443 11.488C219.659 12.5547 220.47 14.0693 220.875 16.032L209.963 19.712L209.131 17.696L217.643 14.656L216.907 15.072C216.672 14.432 216.288 13.8773 215.755 13.408C215.243 12.9387 214.518 12.704 213.579 12.704C212.832 12.704 212.171 12.8853 211.595 13.248C211.019 13.5893 210.56 14.08 210.219 14.72C209.899 15.3387 209.739 16.0747 209.739 16.928C209.739 17.8027 209.92 18.5707 210.283 19.232C210.646 19.8933 211.136 20.4053 211.755 20.768C212.374 21.1093 213.078 21.28 213.867 21.28C214.422 21.28 214.955 21.184 215.467 20.992C215.979 20.8 216.459 20.544 216.907 20.224L218.539 22.88C217.835 23.328 217.056 23.6907 216.203 23.968C215.371 24.224 214.571 24.352 213.803 24.352Z" fill="white"/>
<path d="M530.928 327.352C529.328 327.352 527.963 327.043 526.832 326.424C525.701 325.805 524.837 324.952 524.24 323.864C523.643 322.755 523.344 321.507 523.344 320.12C523.344 318.755 523.685 317.528 524.368 316.44C525.051 315.352 525.968 314.488 527.12 313.848C528.293 313.187 529.584 312.856 530.992 312.856C532.848 312.856 534.373 313.4 535.568 314.488C536.784 315.555 537.595 317.069 538 319.032L527.088 322.712L526.256 320.696L534.768 317.656L534.032 318.072C533.797 317.432 533.413 316.877 532.88 316.408C532.368 315.939 531.643 315.704 530.704 315.704C529.957 315.704 529.296 315.885 528.72 316.248C528.144 316.589 527.685 317.08 527.344 317.72C527.024 318.339 526.864 319.075 526.864 319.928C526.864 320.803 527.045 321.571 527.408 322.232C527.771 322.893 528.261 323.405 528.88 323.768C529.499 324.109 530.203 324.28 530.992 324.28C531.547 324.28 532.08 324.184 532.592 323.992C533.104 323.8 533.584 323.544 534.032 323.224L535.664 325.88C534.96 326.328 534.181 326.691 533.328 326.968C532.496 327.224 531.696 327.352 530.928 327.352ZM546.787 327.352L539.011 313.464H543.267L548.163 323.64L545.955 323.544L550.371 313.464H554.371L546.947 327.352H546.787ZM555.813 320.088C555.813 318.723 556.133 317.496 556.773 316.408C557.413 315.299 558.309 314.435 559.461 313.816C560.634 313.176 561.957 312.856 563.429 312.856C564.943 312.856 566.255 313.176 567.365 313.816C568.495 314.435 569.37 315.299 569.989 316.408C570.607 317.496 570.917 318.723 570.917 320.088C570.917 321.453 570.607 322.691 569.989 323.8C569.37 324.888 568.495 325.752 567.365 326.392C566.255 327.032 564.933 327.352 563.397 327.352C561.946 327.352 560.645 327.064 559.493 326.488C558.341 325.891 557.434 325.048 556.773 323.96C556.133 322.872 555.813 321.581 555.813 320.088ZM559.429 320.12C559.429 320.909 559.599 321.635 559.941 322.296C560.282 322.936 560.751 323.448 561.349 323.832C561.946 324.216 562.607 324.408 563.333 324.408C564.122 324.408 564.805 324.216 565.381 323.832C565.978 323.448 566.437 322.936 566.757 322.296C567.098 321.635 567.269 320.909 567.269 320.12C567.269 319.309 567.098 318.584 566.757 317.944C566.437 317.283 565.978 316.76 565.381 316.376C564.805 315.992 564.122 315.8 563.333 315.8C562.586 315.8 561.914 316.003 561.317 316.408C560.741 316.792 560.282 317.304 559.941 317.944C559.599 318.584 559.429 319.309 559.429 320.12ZM574.683 302.04H578.267V327H574.683V302.04ZM588.975 327.352L581.199 313.464H585.455L590.351 323.64L588.143 323.544L592.559 313.464H596.559L589.135 327.352H588.975ZM605.584 327.352C603.984 327.352 602.619 327.043 601.488 326.424C600.358 325.805 599.494 324.952 598.896 323.864C598.299 322.755 598 321.507 598 320.12C598 318.755 598.342 317.528 599.024 316.44C599.707 315.352 600.624 314.488 601.776 313.848C602.95 313.187 604.24 312.856 605.648 312.856C607.504 312.856 609.03 313.4 610.224 314.488C611.44 315.555 612.251 317.069 612.656 319.032L601.744 322.712L600.912 320.696L609.424 317.656L608.688 318.072C608.454 317.432 608.07 316.877 607.536 316.408C607.024 315.939 606.299 315.704 605.36 315.704C604.614 315.704 603.952 315.885 603.376 316.248C602.8 316.589 602.342 317.08 602 317.72C601.68 318.339 601.52 319.075 601.52 319.928C601.52 320.803 601.702 321.571 602.064 322.232C602.427 322.893 602.918 323.405 603.536 323.768C604.155 324.109 604.859 324.28 605.648 324.28C606.203 324.28 606.736 324.184 607.248 323.992C607.76 323.8 608.24 323.544 608.688 323.224L610.32 325.88C609.616 326.328 608.838 326.691 607.984 326.968C607.152 327.224 606.352 327.352 605.584 327.352Z" fill="white"/>
<path d="M119.679 263H124.359V249.86C124.359 248.384 124.323 246.836 124.179 245.756C124.683 246.512 125.259 247.196 125.835 247.844L138.579 263H141.855V237.8H137.247V250.364C137.247 251.84 137.283 253.388 137.427 254.468C136.923 253.712 136.347 253.028 135.771 252.38L123.495 237.8H119.679V263ZM145.448 263H150.488V252.704H160.064V248.24H150.488V242.336H160.244V237.8H145.448V263ZM168.896 263H173.936V242.336H181.136V237.8H161.696V242.336H168.896V263ZM197.074 263.468C200.422 263.468 202.114 262.064 203.122 259.94V263H207.838V236.72H202.978V247.16C201.97 245.18 200.278 243.884 197.074 243.884C191.926 243.884 187.822 248.312 187.822 253.712C187.822 259.112 191.926 263.468 197.074 263.468ZM192.682 253.676C192.682 250.76 194.77 248.276 197.866 248.276C201.07 248.276 203.122 250.796 203.122 253.712C203.122 256.628 201.07 259.076 197.866 259.076C194.77 259.076 192.682 256.52 192.682 253.676ZM219.689 263.468C223.397 263.468 226.529 261.812 228.041 259.472L224.261 256.628C223.397 258.068 221.777 259.148 219.689 259.148C217.241 259.148 215.585 257.6 215.045 255.404H229.049C229.157 254.792 229.193 254.216 229.193 253.676C229.193 248.276 225.305 243.812 219.689 243.812C214.073 243.812 210.005 248.276 210.005 253.676C210.005 259.076 213.893 263.468 219.689 263.468ZM215.045 251.768C215.585 249.536 217.313 247.988 219.617 247.988C221.993 247.988 223.757 249.68 224.297 251.768H215.045ZM236.069 263H240.965L248.741 244.28H243.089L239.345 254.972C239.021 255.872 238.733 256.988 238.553 257.96C238.373 256.988 238.085 255.872 237.761 254.972L234.017 244.28H228.257L236.069 263ZM257.412 263.468C261.12 263.468 264.252 261.812 265.764 259.472L261.984 256.628C261.12 258.068 259.5 259.148 257.412 259.148C254.964 259.148 253.308 257.6 252.768 255.404H266.772C266.88 254.792 266.916 254.216 266.916 253.676C266.916 248.276 263.028 243.812 257.412 243.812C251.796 243.812 247.728 248.276 247.728 253.676C247.728 259.076 251.616 263.468 257.412 263.468ZM252.768 251.768C253.308 249.536 255.036 247.988 257.34 247.988C259.716 247.988 261.48 249.68 262.02 251.768H252.768ZM269.049 263H273.909V236.72H269.049V263ZM286.036 263.468C291.832 263.468 296.008 259.076 296.008 253.676C296.008 248.276 291.832 243.848 286.036 243.848C280.24 243.848 276.064 248.276 276.064 253.676C276.064 259.076 280.24 263.468 286.036 263.468ZM280.924 253.676C280.924 250.76 282.94 248.276 286.036 248.276C289.132 248.276 291.148 250.76 291.148 253.676C291.148 256.592 289.132 259.04 286.036 259.04C282.94 259.04 280.924 256.592 280.924 253.676ZM298.159 270.2H303.019V260.228C304.027 262.172 305.719 263.468 308.923 263.468C314.071 263.468 318.175 259.112 318.175 253.712C318.175 248.312 314.071 243.884 308.923 243.884C305.647 243.884 303.955 245.252 302.947 247.304V244.28H298.159V270.2ZM302.875 253.712C302.875 250.796 304.927 248.276 308.131 248.276C311.227 248.276 313.315 250.76 313.315 253.676C313.315 256.52 311.227 259.076 308.131 259.076C304.927 259.076 302.875 256.628 302.875 253.712ZM320.342 263H325.202V252.74C325.202 249.5 327.038 248.096 329.09 248.096C331.502 248.096 333.122 249.5 333.122 252.74V263H337.982V252.74C337.982 249.14 339.53 248.096 341.798 248.096C343.994 248.096 345.542 249.5 345.542 252.74V263H350.402V251.552C350.402 246.836 347.306 243.848 343.274 243.848C339.998 243.848 338.198 245.108 336.938 247.376C335.714 245.108 333.482 243.848 330.854 243.848C327.974 243.848 326.102 244.928 325.13 247.016V244.28H320.342V263ZM362.072 263.468C365.78 263.468 368.912 261.812 370.424 259.472L366.644 256.628C365.78 258.068 364.16 259.148 362.072 259.148C359.624 259.148 357.968 257.6 357.428 255.404H371.432C371.54 254.792 371.576 254.216 371.576 253.676C371.576 248.276 367.688 243.812 362.072 243.812C356.456 243.812 352.388 248.276 352.388 253.676C352.388 259.076 356.276 263.468 362.072 263.468ZM357.428 251.768C357.968 249.536 359.696 247.988 362 247.988C364.376 247.988 366.14 249.68 366.68 251.768H357.428ZM373.71 263H378.57V252.74C378.57 249.5 380.406 248.096 382.458 248.096C384.87 248.096 386.49 249.5 386.49 252.74V263H391.35V251.552C391.35 246.836 388.254 243.848 384.222 243.848C381.342 243.848 379.47 244.928 378.498 247.016V244.28H373.71V263ZM400.841 263H403.505V258.68H401.489C400.553 258.68 399.977 258.14 399.977 256.952V248.42H403.937V244.28H399.977V239.996L395.117 240.5V244.28H392.489V248.42H395.117V257.204C395.117 261.272 397.133 263 400.841 263ZM200.688 313.2H205.548V303.228C206.556 305.172 208.248 306.468 211.452 306.468C216.6 306.468 220.704 302.112 220.704 296.712C220.704 291.312 216.6 286.884 211.452 286.884C208.176 286.884 206.484 288.252 205.476 290.304V287.28H200.688V313.2ZM205.404 296.712C205.404 293.796 207.456 291.276 210.66 291.276C213.756 291.276 215.844 293.76 215.844 296.676C215.844 299.52 213.756 302.076 210.66 302.076C207.456 302.076 205.404 299.628 205.404 296.712ZM222.872 306H227.732V296.424C227.732 293.292 229.892 291.42 232.7 291.42H233.384V286.848C230.144 286.668 228.236 288.144 227.588 290.844V287.28H222.872V306ZM243.338 306.468C249.134 306.468 253.31 302.076 253.31 296.676C253.31 291.276 249.134 286.848 243.338 286.848C237.542 286.848 233.366 291.276 233.366 296.676C233.366 302.076 237.542 306.468 243.338 306.468ZM238.226 296.676C238.226 293.76 240.242 291.276 243.338 291.276C246.434 291.276 248.45 293.76 248.45 296.676C248.45 299.592 246.434 302.04 243.338 302.04C240.242 302.04 238.226 299.592 238.226 296.676ZM264.214 306.468C267.886 306.468 270.478 305.136 272.242 302.868L268.714 299.808C267.742 301.104 266.518 302.04 264.646 302.04C261.55 302.04 259.426 299.556 259.426 296.64C259.426 293.724 261.442 291.24 264.538 291.24C266.194 291.24 267.634 292.068 268.498 293.364L272.242 290.304C270.658 288.108 267.886 286.776 264.466 286.812C258.742 286.848 254.566 291.204 254.566 296.64C254.566 302.076 258.85 306.468 264.214 306.468ZM281.933 306.468C285.641 306.468 288.773 304.812 290.285 302.472L286.505 299.628C285.641 301.068 284.021 302.148 281.933 302.148C279.485 302.148 277.829 300.6 277.289 298.404H291.293C291.401 297.792 291.437 297.216 291.437 296.676C291.437 291.276 287.549 286.812 281.933 286.812C276.317 286.812 272.249 291.276 272.249 296.676C272.249 302.076 276.137 306.468 281.933 306.468ZM277.289 294.768C277.829 292.536 279.557 290.988 281.861 290.988C284.237 290.988 286.001 292.68 286.541 294.768H277.289ZM299.452 306.468C303.592 306.468 306.724 303.876 306.724 300.42C306.724 297.612 305.464 295.596 300.028 294.192C297.796 293.616 297.508 293.04 297.508 292.392C297.508 291.24 298.516 290.736 299.848 290.736C301.108 290.736 302.26 291.312 303.16 292.752L306.688 290.052C304.78 287.568 302.764 286.812 299.74 286.812C295.348 286.812 292.756 289.26 292.756 292.536C292.756 294.912 293.512 297.18 298.516 298.368C301.468 299.052 301.936 299.592 301.936 300.564C301.936 301.68 301 302.508 299.344 302.508C297.76 302.508 296.32 301.752 294.952 300.204L291.676 303.192C293.728 305.388 296.284 306.468 299.452 306.468ZM315.026 306.468C319.166 306.468 322.298 303.876 322.298 300.42C322.298 297.612 321.038 295.596 315.602 294.192C313.37 293.616 313.082 293.04 313.082 292.392C313.082 291.24 314.09 290.736 315.422 290.736C316.682 290.736 317.834 291.312 318.734 292.752L322.262 290.052C320.354 287.568 318.338 286.812 315.314 286.812C310.922 286.812 308.33 289.26 308.33 292.536C308.33 294.912 309.086 297.18 314.09 298.368C317.042 299.052 317.51 299.592 317.51 300.564C317.51 301.68 316.574 302.508 314.918 302.508C313.334 302.508 311.894 301.752 310.526 300.204L307.25 303.192C309.302 305.388 311.858 306.468 315.026 306.468Z" fill="white"/>
</svg>
