<svg
        width="150"
        height="150"
        viewBox="0 0 150 150"
        fill="none"
        xmlns="http://www.w3.org/2000/svg"
        class="mx-auto "
      >
        <rect
          x="2.5"
          y="2.5"
          width="145"
          height="145"
          rx="72.5"
          stroke="#6366F1"
          stroke-width="5"
        />
        <path
          d="M87.0608 38C86.4344 38 85.8091 38.1537 85.2414 38.4573C85.1904 38.4806 85.1426 38.5099 85.0942 38.5388C85.0863 38.5434 85.0821 38.5482 85.0747 38.5528C85.0206 38.5854 84.9663 38.6218 84.9113 38.6572C84.8587 38.6898 84.8096 38.7261 84.7595 38.7629C84.7572 38.7646 84.7553 38.7652 84.7516 38.7674C84.5955 38.8839 84.4434 39.0101 84.3011 39.1522C84.2537 39.1997 84.2059 39.2499 84.1612 39.2988L70.2367 53.2234C68.7193 54.7408 68.7193 57.1832 70.2367 58.7007C71.7542 60.2182 74.199 60.2182 75.7165 58.7007L83.2106 51.2067V82.1768C83.2106 84.4245 84.9282 86.2342 87.0633 86.2344C89.1986 86.2344 90.9187 84.4245 90.9186 82.1768L90.9187 51.25L98.3839 58.7152C99.9013 60.2327 102.344 60.2327 103.861 58.7152C105.379 57.1977 105.379 54.7529 103.861 53.2354L90.074 39.4482L90.0651 39.4388C89.9828 39.3368 89.8962 39.2368 89.8013 39.1422C89.0426 38.3835 88.051 38 87.0608 38Z"
          fill="#6366F1"
        />
        <path
          d="M62.8795 63.2462C62.4653 63.2462 62.0517 63.3478 61.6763 63.5485C61.6427 63.5625 61.6109 63.5811 61.5789 63.6025C61.5738 63.6056 61.571 63.6071 61.5659 63.6117C61.53 63.635 61.4942 63.6583 61.4578 63.6807C61.4229 63.704 61.3906 63.7273 61.3574 63.7506C61.3559 63.7517 61.3547 63.7522 61.3523 63.7537C61.2491 63.8306 61.1484 63.9144 61.0544 64.008C61.0232 64.0406 60.9914 64.0726 60.9619 64.1048L51.7527 73.314C50.7491 74.3176 50.7491 75.9329 51.7527 76.9365C52.7563 77.9402 54.3732 77.9402 55.3768 76.9365L60.3332 71.9802V92.4629C60.3332 93.9494 61.4692 95.1463 62.8813 95.1464C64.2935 95.1464 65.4311 93.9494 65.431 92.4629L65.4311 72.0089L70.3683 76.9462C71.3719 77.9498 72.9872 77.9498 73.9908 76.9462C74.9944 75.9426 74.9944 74.3256 73.9908 73.322L64.8724 64.2035L64.8663 64.199C64.8119 64.1315 64.7546 64.0653 64.6919 64.0029C64.1901 63.5011 63.5344 63.2462 62.8795 63.2462Z"
          fill="#6366F1"
          stroke="#312E81"
          stroke-width="0.232551"
        />
        <path
          d="M77.2537 89.2838C76.9531 89.2838 76.6529 89.3573 76.3805 89.5031C76.3563 89.5124 76.3331 89.5264 76.3098 89.545C76.3061 89.5472 76.3042 89.5484 76.3005 89.5544C76.2744 89.573 76.2485 89.5917 76.2221 89.6047C76.197 89.6233 76.1733 89.642 76.1492 89.6555C76.1481 89.6563 76.1509 89.6544 76.1492 89.6555C76.0743 89.7113 75.9976 89.7741 75.9293 89.8421C75.9065 89.8653 75.8837 89.8891 75.8622 89.9124L69.1791 96.5955C68.4507 97.3238 68.4507 98.4961 69.1791 99.2244C69.9074 99.9527 71.0808 99.9527 71.8091 99.2244L75.4059 95.6276V110.492C75.4059 111.571 76.2303 112.439 77.2551 112.439C78.2799 112.439 79.1055 111.571 79.1055 110.492V95.6485L82.6884 99.2314C83.4168 99.9597 84.589 99.9597 85.3173 99.2314C86.0456 98.5031 86.0457 97.3297 85.3173 96.6014L78.7001 89.9842L78.6957 89.9808C78.6561 89.9314 78.6146 89.8839 78.5691 89.8382C78.2049 89.474 77.7288 89.2919 77.2535 89.2919L77.2537 89.2838Z"
          fill="#6366F1"
        />
      </svg>