<svg width="684" height="387" viewBox="0 0 684 387" fill="none" xmlns="http://www.w3.org/2000/svg">
<path d="M237.999 40.8063L228.292 123.38" stroke="#312E81" stroke-width="1.50645" stroke-miterlimit="10" stroke-linecap="round" stroke-linejoin="round"/>
<path d="M336.979 15.4488L367.364 92.8469" stroke="#312E81" stroke-width="1.50951" stroke-miterlimit="10" stroke-linecap="round" stroke-linejoin="round"/>
<path d="M368.324 88.6247L348.906 169.47" stroke="#312E81" stroke-width="1.50951" stroke-miterlimit="10" stroke-linecap="round" stroke-linejoin="round"/>
<path d="M458.659 74.9766L441.02 156.228" stroke="#312E81" stroke-width="1.50951" stroke-miterlimit="10" stroke-linecap="round" stroke-linejoin="round"/>
<path d="M618.297 121.595L537.263 140.432" stroke="#312E81" stroke-width="1.50951" stroke-miterlimit="10" stroke-linecap="round" stroke-linejoin="round"/>
<path d="M588.183 56.7301L535.772 130.139" stroke="#312E81" stroke-width="1.51213" stroke-miterlimit="10" stroke-linecap="round" stroke-linejoin="round"/>
<path d="M385.497 327.319L469.05 343.953" stroke="#312E81" stroke-width="1.51029" stroke-miterlimit="10" stroke-linecap="round" stroke-linejoin="round"/>
<path d="M354.735 185.035L411.229 248.763" stroke="#312E81" stroke-width="1.51029" stroke-miterlimit="10" stroke-linecap="round" stroke-linejoin="round"/>
<path d="M411.693 247.872L503.704 290.324" stroke="#312E81" stroke-width="1.51553" stroke-miterlimit="10" stroke-linecap="round" stroke-linejoin="round"/>
<path d="M517.852 217.915L586.289 268.621" stroke="#312E81" stroke-width="1.51029" stroke-miterlimit="10" stroke-linecap="round" stroke-linejoin="round"/>
<path d="M448.336 154.907L365.555 175.03" stroke="#312E81" stroke-width="1.51029" stroke-miterlimit="10" stroke-linecap="round" stroke-linejoin="round"/>
<path d="M533.23 142.823L448.672 153.211" stroke="#312E81" stroke-width="1.51029" stroke-miterlimit="10" stroke-linecap="round" stroke-linejoin="round"/>
<path d="M601.614 185.64L521.375 214.255" stroke="#312E81" stroke-width="1.51029" stroke-miterlimit="10" stroke-linecap="round" stroke-linejoin="round"/>
<path d="M668.426 266.037L583.263 268.393" stroke="#312E81" stroke-width="1.51029" stroke-miterlimit="10" stroke-linecap="round" stroke-linejoin="round"/>
<path d="M584.524 268.953L576.698 353.732" stroke="#312E81" stroke-width="1.51029" stroke-miterlimit="10" stroke-linecap="round" stroke-linejoin="round"/>
<path d="M505.181 220.828L423.41 244.719" stroke="#312E81" stroke-width="1.51029" stroke-miterlimit="10" stroke-linecap="round" stroke-linejoin="round"/>
<path d="M312.287 260.291L379.343 329.293" stroke="#312E81" stroke-width="1.51408" stroke-miterlimit="10" stroke-linecap="round" stroke-linejoin="round"/>
<path d="M308.362 270.195L295.974 352.41" stroke="#312E81" stroke-width="1.50951" stroke-miterlimit="10" stroke-linecap="round" stroke-linejoin="round"/>
<path d="M340.654 192.725L306.094 268.354" stroke="#312E81" stroke-width="1.50951" stroke-miterlimit="10" stroke-linecap="round" stroke-linejoin="round"/>
<path d="M49.6577 59.4104L120.191 149.444" stroke="#312E81" stroke-width="1.51876" stroke-miterlimit="10" stroke-linecap="round" stroke-linejoin="round"/>
<path d="M183.694 301.063L118.064 371.528" stroke="#312E81" stroke-width="1.51411" stroke-miterlimit="10" stroke-linecap="round" stroke-linejoin="round"/>
<path d="M121.007 141.82L233.938 197.282" stroke="#312E81" stroke-width="1.52103" stroke-miterlimit="10" stroke-linecap="round" stroke-linejoin="round"/>
<path d="M126.498 221.809L78.6226 246.631" stroke="#312E81" stroke-width="1.49176" stroke-miterlimit="10" stroke-linecap="round" stroke-linejoin="round"/>
<path d="M186.797 303.82L68.4749 315.809" stroke="#312E81" stroke-width="1.51971" stroke-miterlimit="10" stroke-linecap="round" stroke-linejoin="round"/>
<path d="M128.632 222.625L11.5996 201.486" stroke="#312E81" stroke-width="1.51971" stroke-miterlimit="10" stroke-linecap="round" stroke-linejoin="round"/>
<path d="M234.205 207.437L133.003 222.055" stroke="#312E81" stroke-width="1.54148" stroke-miterlimit="10" stroke-linecap="round" stroke-linejoin="round"/>
<path d="M240.417 210.515L186.833 297.546" stroke="#312E81" stroke-width="1.54148" stroke-miterlimit="10" stroke-linecap="round" stroke-linejoin="round"/>
<path d="M326.35 186.344L252.295 204.283" stroke="#312E81" stroke-width="1.50645" stroke-miterlimit="10" stroke-linecap="round" stroke-linejoin="round"/>
<path d="M237.939 126.441L333.46 173.702" stroke="#312E81" stroke-width="1.50645" stroke-miterlimit="10" stroke-linecap="round" stroke-linejoin="round"/>
<path d="M157.039 40.7849L229.285 119.099" stroke="#312E81" stroke-width="1.50645" stroke-miterlimit="10" stroke-linecap="round" stroke-linejoin="round"/>
<path d="M346.757 217.265C367.822 217.265 384.898 200.2 384.898 179.15C384.898 158.099 367.822 141.034 346.757 141.034C325.693 141.034 308.616 158.099 308.616 179.15C308.616 200.2 325.693 217.265 346.757 217.265Z" fill="#6366F1"/>
<path d="M346.05 211.84C365.467 211.84 381.207 196.11 381.207 176.706C381.207 157.303 365.467 141.573 346.05 141.573C326.633 141.573 310.893 157.303 310.893 176.706C310.893 196.11 326.633 211.84 346.05 211.84Z" stroke="#312E81" stroke-width="1.50645" stroke-miterlimit="10" stroke-linecap="round" stroke-linejoin="round"/>
<path d="M63.0994 273.769C74.1289 273.769 83.0701 264.894 83.0701 253.946C83.0701 242.998 74.1289 234.123 63.0994 234.123C52.0699 234.123 43.1287 242.998 43.1287 253.946C43.1287 264.894 52.0699 273.769 63.0994 273.769Z" fill="#E3E7E3" stroke="#312E81" stroke-width="3.5146" stroke-miterlimit="10" stroke-linecap="round" stroke-linejoin="round"/>
<path d="M49.2844 77.6931C60.314 77.6931 69.2551 68.8181 69.2551 57.8701C69.2551 46.9222 60.314 38.0472 49.2844 38.0472C38.2549 38.0472 29.3137 46.9222 29.3137 57.8701C29.3137 68.8181 38.2549 77.6931 49.2844 77.6931Z" fill="#E3E7E3" stroke="#312E81" stroke-width="3.5146" stroke-miterlimit="10" stroke-linecap="round" stroke-linejoin="round"/>
<path d="M118.2 161.635C129.791 161.635 139.188 152.245 139.188 140.661C139.188 129.077 129.791 119.687 118.2 119.687C106.609 119.687 97.2122 129.077 97.2122 140.661C97.2122 152.245 106.609 161.635 118.2 161.635Z" fill="#6366F1"/>
<path d="M116.585 159.326C127.272 159.326 135.936 150.668 135.936 139.988C135.936 129.308 127.272 120.65 116.585 120.65C105.898 120.65 97.2349 129.308 97.2349 139.988C97.2349 150.668 105.898 159.326 116.585 159.326Z" stroke="#312E81" stroke-width="1.95382" stroke-miterlimit="10" stroke-linecap="round" stroke-linejoin="round"/>
<path d="M120.469 384.667C131.499 384.667 140.44 375.792 140.44 364.844C140.44 353.897 131.499 345.022 120.469 345.022C109.44 345.022 100.499 353.897 100.499 364.844C100.499 375.792 109.44 384.667 120.469 384.667Z" fill="#E3E7E3" stroke="#312E81" stroke-width="3.5146" stroke-miterlimit="10" stroke-linecap="round" stroke-linejoin="round"/>
<path d="M295.245 372.11C306.275 372.11 315.216 363.235 315.216 352.287C315.216 341.339 306.275 332.464 295.245 332.464C284.216 332.464 275.274 341.339 275.274 352.287C275.274 363.235 284.216 372.11 295.245 372.11Z" fill="#E3E7E3" stroke="#312E81" stroke-width="3.5146" stroke-miterlimit="10" stroke-linecap="round" stroke-linejoin="round"/>
<path d="M309.334 284.59C320.363 284.59 329.304 275.715 329.304 264.767C329.304 253.819 320.363 244.944 309.334 244.944C298.304 244.944 289.363 253.819 289.363 264.767C289.363 275.715 298.304 284.59 309.334 284.59Z" fill="#E3E7E3" stroke="#312E81" stroke-width="3.5146" stroke-miterlimit="10" stroke-linecap="round" stroke-linejoin="round"/>
<path d="M379.016 343.571C390.045 343.571 398.986 334.696 398.986 323.748C398.986 312.8 390.045 303.925 379.016 303.925C367.986 303.925 359.045 312.8 359.045 323.748C359.045 334.696 367.986 343.571 379.016 343.571Z" fill="#E3E7E3" stroke="#312E81" stroke-width="3.5146" stroke-miterlimit="10" stroke-linecap="round" stroke-linejoin="round"/>
<path d="M577.619 364.419C588.649 364.419 597.59 355.544 597.59 344.596C597.59 333.648 588.649 324.773 577.619 324.773C566.59 324.773 557.648 333.648 557.648 344.596C557.648 355.544 566.59 364.419 577.619 364.419Z" fill="#E3E7E3" stroke="#312E81" stroke-width="3.5146" stroke-miterlimit="10" stroke-linecap="round" stroke-linejoin="round"/>
<path d="M496.782 306.503C507.812 306.503 516.753 297.628 516.753 286.68C516.753 275.732 507.812 266.857 496.782 266.857C485.752 266.857 476.811 275.732 476.811 286.68C476.811 297.628 485.752 306.503 496.782 306.503Z" fill="#E3E7E3" stroke="#312E81" stroke-width="3.5146" stroke-miterlimit="10" stroke-linecap="round" stroke-linejoin="round"/>
<path d="M466.975 360.695C478.004 360.695 486.945 351.82 486.945 340.872C486.945 329.924 478.004 321.049 466.975 321.049C455.945 321.049 447.004 329.924 447.004 340.872C447.004 351.82 455.945 360.695 466.975 360.695Z" fill="#E3E7E3" stroke="#312E81" stroke-width="3.5146" stroke-miterlimit="10" stroke-linecap="round" stroke-linejoin="round"/>
<path d="M526.756 160.54C537.786 160.54 546.727 151.665 546.727 140.717C546.727 129.769 537.786 120.894 526.756 120.894C515.727 120.894 506.786 129.769 506.786 140.717C506.786 151.665 515.727 160.54 526.756 160.54Z" fill="#E3E7E3" stroke="#312E81" stroke-width="3.5146" stroke-miterlimit="10" stroke-linecap="round" stroke-linejoin="round"/>
<path d="M442.986 175C454.015 175 462.957 166.124 462.957 155.177C462.957 144.229 454.015 135.354 442.986 135.354C431.956 135.354 423.015 144.229 423.015 155.177C423.015 166.124 431.956 175 442.986 175Z" fill="#E3E7E3" stroke="#312E81" stroke-width="3.5146" stroke-miterlimit="10" stroke-linecap="round" stroke-linejoin="round"/>
<path d="M598.342 208.486C609.372 208.486 618.313 199.61 618.313 188.663C618.313 177.715 609.372 168.84 598.342 168.84C587.313 168.84 578.371 177.715 578.371 188.663C578.371 199.61 587.313 208.486 598.342 208.486Z" fill="#E3E7E3" stroke="#312E81" stroke-width="3.5146" stroke-miterlimit="10" stroke-linecap="round" stroke-linejoin="round"/>
<path d="M661.339 285.248C672.368 285.248 681.31 276.372 681.31 265.425C681.31 254.477 672.368 245.602 661.339 245.602C650.309 245.602 641.368 254.477 641.368 265.425C641.368 276.372 650.309 285.248 661.339 285.248Z" fill="#E3E7E3" stroke="#312E81" stroke-width="3.5146" stroke-miterlimit="10" stroke-linecap="round" stroke-linejoin="round"/>
<path d="M459.765 94.1605C470.795 94.1605 479.736 85.2854 479.736 74.3375C479.736 63.3896 470.795 54.5146 459.765 54.5146C448.736 54.5146 439.795 63.3896 439.795 74.3375C439.795 85.2854 448.736 94.1605 459.765 94.1605Z" fill="#E3E7E3" stroke="#312E81" stroke-width="3.5146" stroke-miterlimit="10" stroke-linecap="round" stroke-linejoin="round"/>
<path d="M340.979 41.6459C352.009 41.6459 360.95 32.7709 360.95 21.8229C360.95 10.875 352.009 2 340.979 2C329.95 2 321.009 10.875 321.009 21.8229C321.009 32.7709 329.95 41.6459 340.979 41.6459Z" fill="#E3E7E3" stroke="#312E81" stroke-width="3.5146" stroke-miterlimit="10" stroke-linecap="round" stroke-linejoin="round"/>
<path d="M626.138 138.469C637.168 138.469 646.109 129.594 646.109 118.646C646.109 107.698 637.168 98.8235 626.138 98.8235C615.109 98.8235 606.168 107.698 606.168 118.646C606.168 129.594 615.109 138.469 626.138 138.469Z" fill="#E3E7E3" stroke="#312E81" stroke-width="3.5146" stroke-miterlimit="10" stroke-linecap="round" stroke-linejoin="round"/>
<path d="M590.573 73.6652C601.602 73.6652 610.544 64.7902 610.544 53.8423C610.544 42.8943 601.602 34.0193 590.573 34.0193C579.543 34.0193 570.602 42.8943 570.602 53.8423C570.602 64.7902 579.543 73.6652 590.573 73.6652Z" fill="#E3E7E3" stroke="#312E81" stroke-width="3.5146" stroke-miterlimit="10" stroke-linecap="round" stroke-linejoin="round"/>
<path d="M231.662 143.876C243.253 143.876 252.649 134.486 252.649 122.902C252.649 111.319 243.253 101.928 231.662 101.928C220.07 101.928 210.674 111.319 210.674 122.902C210.674 134.486 220.07 143.876 231.662 143.876Z" fill="#6366F1"/>
<path d="M230.854 141.567C241.541 141.567 250.205 132.909 250.205 122.229C250.205 111.549 241.541 102.892 230.854 102.892C220.167 102.892 211.504 111.549 211.504 122.229C211.504 132.909 220.167 141.567 230.854 141.567Z" stroke="#312E81" stroke-width="1.95382" stroke-miterlimit="10" stroke-linecap="round" stroke-linejoin="round"/>
<path d="M364.562 116.969C376.154 116.969 385.55 107.579 385.55 95.9953C385.55 84.4117 376.154 75.0214 364.562 75.0214C352.971 75.0214 343.574 84.4117 343.574 95.9953C343.574 107.579 352.971 116.969 364.562 116.969Z" fill="#6366F1"/>
<path d="M366.448 114.391C377.135 114.391 385.798 105.733 385.798 95.0533C385.798 84.3734 377.135 75.7156 366.448 75.7156C355.761 75.7156 347.097 84.3734 347.097 95.0533C347.097 105.733 355.761 114.391 366.448 114.391Z" stroke="#312E81" stroke-width="1.95382" stroke-miterlimit="10" stroke-linecap="round" stroke-linejoin="round"/>
<path d="M243.939 228.364C255.53 228.364 264.927 218.974 264.927 207.39C264.927 195.807 255.53 186.417 243.939 186.417C232.348 186.417 222.951 195.807 222.951 207.39C222.951 218.974 232.348 228.364 243.939 228.364Z" fill="#6366F1"/>
<path d="M242.593 226.055C253.28 226.055 261.944 217.397 261.944 206.717C261.944 196.037 253.28 187.38 242.593 187.38C231.906 187.38 223.243 196.037 223.243 206.717C223.243 217.397 231.906 226.055 242.593 226.055Z" stroke="#312E81" stroke-width="1.95382" stroke-miterlimit="10" stroke-linecap="round" stroke-linejoin="round"/>
<path d="M125.739 240.203C137.33 240.203 146.727 230.813 146.727 219.229C146.727 207.646 137.33 198.256 125.739 198.256C114.148 198.256 104.751 207.646 104.751 219.229C104.751 230.813 114.148 240.203 125.739 240.203Z" fill="#6366F1"/>
<path d="M124.663 240.047C135.35 240.047 144.013 231.389 144.013 220.709C144.013 210.029 135.35 201.371 124.663 201.371C113.976 201.371 105.312 210.029 105.312 220.709C105.312 231.389 113.976 240.047 124.663 240.047Z" stroke="#312E81" stroke-width="1.95382" stroke-miterlimit="10" stroke-linecap="round" stroke-linejoin="round"/>
<path d="M21.9878 222.614C33.5791 222.614 42.9756 213.224 42.9756 201.64C42.9756 190.056 33.5791 180.666 21.9878 180.666C10.3966 180.666 1 190.056 1 201.64C1 213.224 10.3966 222.614 21.9878 222.614Z" fill="#6366F1"/>
<path d="M21.1808 222.457C31.8678 222.457 40.5313 213.799 40.5313 203.12C40.5313 192.44 31.8678 183.782 21.1808 183.782C10.4938 183.782 1.83032 192.44 1.83032 203.12C1.83032 213.799 10.4938 222.457 21.1808 222.457Z" stroke="#312E81" stroke-width="1.95382" stroke-miterlimit="10" stroke-linecap="round" stroke-linejoin="round"/>
<path d="M155.087 56.9666C166.678 56.9666 176.075 47.5763 176.075 35.9927C176.075 24.4092 166.678 15.0188 155.087 15.0188C143.496 15.0188 134.099 24.4092 134.099 35.9927C134.099 47.5763 143.496 56.9666 155.087 56.9666Z" fill="#6366F1"/>
<path d="M153.742 57.6171C164.429 57.6171 173.092 48.9594 173.092 38.2795C173.092 27.5996 164.429 18.9418 153.742 18.9418C143.055 18.9418 134.391 27.5996 134.391 38.2795C134.391 48.9594 143.055 57.6171 153.742 57.6171Z" stroke="#312E81" stroke-width="1.95382" stroke-miterlimit="10" stroke-linecap="round" stroke-linejoin="round"/>
<path d="M239.093 65.3078C250.684 65.3078 260.08 55.9175 260.08 44.3339C260.08 32.7503 250.684 23.36 239.093 23.36C227.501 23.36 218.105 32.7503 218.105 44.3339C218.105 55.9175 227.501 65.3078 239.093 65.3078Z" fill="#6366F1"/>
<path d="M238.286 61.9222C248.973 61.9222 257.636 53.2644 257.636 42.5845C257.636 31.9046 248.973 23.2469 238.286 23.2469C227.599 23.2469 218.935 31.9046 218.935 42.5845C218.935 53.2644 227.599 61.9222 238.286 61.9222Z" stroke="#312E81" stroke-width="1.95382" stroke-miterlimit="10" stroke-linecap="round" stroke-linejoin="round"/>
<path d="M186.589 323.615C198.18 323.615 207.577 314.225 207.577 302.641C207.577 291.058 198.18 281.667 186.589 281.667C174.998 281.667 165.601 291.058 165.601 302.641C165.601 314.225 174.998 323.615 186.589 323.615Z" fill="#6366F1"/>
<path d="M184.436 320.23C195.123 320.23 203.786 311.572 203.786 300.892C203.786 290.212 195.123 281.554 184.436 281.554C173.749 281.554 165.085 290.212 165.085 300.892C165.085 311.572 173.749 320.23 184.436 320.23Z" stroke="#312E81" stroke-width="1.95382" stroke-miterlimit="10" stroke-linecap="round" stroke-linejoin="round"/>
<path d="M70.3191 337.29C81.9104 337.29 91.307 327.899 91.307 316.316C91.307 304.732 81.9104 295.342 70.3191 295.342C58.7279 295.342 49.3313 304.732 49.3313 316.316C49.3313 327.899 58.7279 337.29 70.3191 337.29Z" fill="#6366F1"/>
<path d="M72.2045 334.711C82.8915 334.711 91.555 326.054 91.555 315.374C91.555 304.694 82.8915 296.036 72.2045 296.036C61.5175 296.036 52.854 304.694 52.854 315.374C52.854 326.054 61.5175 334.711 72.2045 334.711Z" stroke="#312E81" stroke-width="1.95382" stroke-miterlimit="10" stroke-linecap="round" stroke-linejoin="round"/>
<path d="M412.99 266.607C424.581 266.607 433.978 257.217 433.978 245.634C433.978 234.05 424.581 224.66 412.99 224.66C401.399 224.66 392.002 234.05 392.002 245.634C392.002 257.217 401.399 266.607 412.99 266.607Z" fill="#6366F1"/>
<path d="M412.183 263.76C422.87 263.76 431.533 255.102 431.533 244.422C431.533 233.742 422.87 225.085 412.183 225.085C401.496 225.085 392.833 233.742 392.833 244.422C392.833 255.102 401.496 263.76 412.183 263.76Z" stroke="#312E81" stroke-width="1.95382" stroke-miterlimit="10" stroke-linecap="round" stroke-linejoin="round"/>
<path d="M512.649 238.32C524.24 238.32 533.637 228.93 533.637 217.346C533.637 205.762 524.24 196.372 512.649 196.372C501.058 196.372 491.661 205.762 491.661 217.346C491.661 228.93 501.058 238.32 512.649 238.32Z" fill="#6366F1"/>
<path d="M514.535 235.741C525.222 235.741 533.885 227.084 533.885 216.404C533.885 205.724 525.222 197.066 514.535 197.066C503.848 197.066 495.184 205.724 495.184 216.404C495.184 227.084 503.848 235.741 514.535 235.741Z" stroke="#312E81" stroke-width="1.95382" stroke-miterlimit="10" stroke-linecap="round" stroke-linejoin="round"/>
<path d="M584.538 287.022C596.13 287.022 605.526 277.631 605.526 266.048C605.526 254.464 596.13 245.074 584.538 245.074C572.947 245.074 563.551 254.464 563.551 266.048C563.551 277.631 572.947 287.022 584.538 287.022Z" fill="#6366F1"/>
<path d="M584.27 286.327C594.957 286.327 603.62 277.669 603.62 266.989C603.62 256.309 594.957 247.651 584.27 247.651C573.583 247.651 564.919 256.309 564.919 266.989C564.919 277.669 573.583 286.327 584.27 286.327Z" stroke="#312E81" stroke-width="1.95382" stroke-miterlimit="10" stroke-linecap="round" stroke-linejoin="round"/>
</svg>
