<svg xmlns="http://www.w3.org/2000/svg" fill="none" viewBox="0 0 128 128">
  <g
     id="g10973-0-0"
     transform="matrix(7.9422823,0,0,7.9422823,-295.67232,-2091.9078)">
    <path
       id="rect1180-4-9-4-9-3-8-2-60-3"
       style="fill:#6366f1;stroke:none;stroke-width:0.026;stroke-dasharray:none"
       d="m 47.335978,263.48072 c -0.134491,0 -0.268778,0.033 -0.390669,0.0982 -0.01096,0.005 -0.02121,0.0113 -0.03161,0.0175 -0.0017,10e-4 -0.0026,0.002 -0.0042,0.003 -0.0116,0.007 -0.02326,0.0148 -0.03507,0.0224 -0.01131,0.007 -0.02185,0.0148 -0.0326,0.0227 -5.02e-4,3.7e-4 -8.98e-4,5.1e-4 -0.0017,10e-4 -0.03352,0.025 -0.06619,0.0521 -0.09673,0.0826 -0.01018,0.0102 -0.02045,0.021 -0.03005,0.0315 l -2.990001,2.99 c -0.325849,0.32585 -0.325849,0.85031 0,1.17616 0.325849,0.32585 0.85082,0.32585 1.176668,0 l 1.609206,-1.6092 v 6.65024 c 7e-6,0.48265 0.368834,0.87126 0.827308,0.87129 0.458516,0 0.827866,-0.38862 0.827852,-0.87127 l 7e-6,-6.64094 1.603004,1.603 c 0.325849,0.32585 0.850296,0.32585 1.176145,0 0.325849,-0.32585 0.325856,-0.85083 7e-6,-1.17668 l -2.960543,-2.96054 -0.0019,-0.002 c -0.01768,-0.0219 -0.03627,-0.0434 -0.05664,-0.0637 -0.162924,-0.16293 -0.375962,-0.24444 -0.588589,-0.24443 z" />
    <path
       id="rect1180-4-9-4-9-3-8-2-6-3-1"
       style="fill:#6366f1;stroke:#312e81;stroke-width:0.0171955;stroke-dasharray:none"
       d="m 42.143396,268.9018 c -0.08895,0 -0.17776,0.0218 -0.258375,0.0649 -0.0072,0.003 -0.01403,0.007 -0.02091,0.0116 -0.0011,6.6e-4 -0.0017,0.001 -0.0028,0.002 -0.0077,0.005 -0.01538,0.01 -0.02319,0.0148 -0.0075,0.005 -0.01445,0.01 -0.02156,0.015 -3.32e-4,2.4e-4 -5.94e-4,3.4e-4 -0.0011,6.6e-4 -0.02217,0.0165 -0.04378,0.0345 -0.06397,0.0546 -0.0067,0.007 -0.01353,0.0139 -0.01987,0.0208 l -1.977488,1.97749 c -0.215506,0.21551 -0.215506,0.56237 0,0.77787 0.215505,0.21551 0.562704,0.21551 0.778209,0 l 1.064276,-1.06427 v 4.39825 c 5e-6,0.31921 0.243935,0.57623 0.547155,0.57625 0.303247,0 0.547523,-0.25703 0.547514,-0.57623 l 4e-6,-4.3921 1.060174,1.06017 c 0.215506,0.2155 0.562358,0.2155 0.777864,0 0.215506,-0.21551 0.215511,-0.56271 5e-6,-0.77822 l -1.958006,-1.958 -0.0013,-10e-4 c -0.01169,-0.0145 -0.02399,-0.0287 -0.03746,-0.0421 -0.107752,-0.10775 -0.248648,-0.16166 -0.389273,-0.16165 z" />
    <path
       id="rect1180-4-9-4-9-3-8-2-6-6-9-0"
       style="fill:#6366f1;stroke:#312e81;stroke-width:0.0124788;stroke-dasharray:none"
       d="m 45.229894,274.49289 c -0.06455,0 -0.129002,0.0158 -0.187504,0.0471 -0.0052,0.002 -0.01018,0.005 -0.01518,0.009 -7.97e-4,4.7e-4 -0.0012,7.2e-4 -0.002,0.002 -0.0056,0.004 -0.01116,0.008 -0.01683,0.0108 -0.0054,0.004 -0.01049,0.008 -0.01565,0.0109 -2.41e-4,1.8e-4 -4.31e-4,2.5e-4 -7.99e-4,4.8e-4 -0.01609,0.012 -0.03177,0.025 -0.04642,0.0396 -0.0049,0.005 -0.0098,0.0101 -0.01442,0.0151 l -1.435071,1.43507 c -0.156393,0.1564 -0.156393,0.40812 0,0.56451 0.156393,0.15639 0.408356,0.15639 0.56475,0 l 0.772348,-0.77235 v 3.19183 c 4e-6,0.23165 0.177025,0.41817 0.397073,0.41818 0.220067,0 0.39734,-0.18652 0.397333,-0.41816 l 3e-6,-3.18737 0.769372,0.76936 c 0.156394,0.15639 0.408105,0.15639 0.5645,0 0.156393,-0.15638 0.156397,-0.40836 2e-6,-0.56474 l -1.420932,-1.42093 -9.43e-4,-7.3e-4 c -0.0085,-0.0106 -0.01741,-0.0208 -0.02718,-0.0306 -0.0782,-0.0782 -0.180445,-0.11732 -0.282497,-0.11731 z" />
  </g>
</svg>
