<svg width="125" height="124" viewBox="0 0 125 124" fill="none" xmlns="http://www.w3.org/2000/svg">
<path d="M123.459 1.68258C123.409 1.43756 123.289 1.21204 123.115 1.03245C122.941 0.852863 122.719 0.726653 122.476 0.668615C106.25 -3.29861 68.7577 10.8388 48.4451 31.1431C44.8222 34.7367 41.5194 38.6393 38.5742 42.8065C32.3103 42.2524 26.0464 42.7151 20.7078 45.0422C5.64514 51.6718 1.25959 68.9702 0.0378385 76.4115C-0.0314613 76.8188 -0.00532138 77.2366 0.114202 77.6321C0.233725 78.0276 0.443371 78.3899 0.726653 78.6907C1.00994 78.9914 1.35913 79.2223 1.74676 79.3652C2.1344 79.5082 2.54991 79.5592 2.96062 79.5143L27.149 76.8464C27.1663 78.6701 27.2763 80.4917 27.4787 82.3041C27.6004 83.5628 28.1591 84.739 29.0578 85.6286L38.4246 94.9732C39.315 95.8707 40.4908 96.4292 41.7491 96.5523C43.5514 96.7539 45.3628 96.864 47.1763 96.882L44.5222 121.04C44.478 121.451 44.5294 121.866 44.6725 122.253C44.8157 122.64 45.0466 122.989 45.3472 123.273C45.6478 123.556 46.0099 123.765 46.4051 123.885C46.8003 124.005 47.2179 124.031 47.6251 123.963C55.0525 122.771 72.3814 118.386 78.9722 103.323C81.2994 97.9846 81.7759 91.7512 81.2384 85.5178C85.4157 82.5724 89.3285 79.2687 92.9323 75.6441C113.309 55.3703 127.366 18.715 123.459 1.68258ZM72.6031 51.4584C70.7424 49.599 69.4751 47.2296 68.9613 44.6498C68.4474 42.07 68.7103 39.3958 69.7165 36.9654C70.7227 34.535 72.4272 32.4577 74.6142 30.9961C76.8012 29.5345 79.3726 28.7544 82.003 28.7544C84.6335 28.7544 87.2049 29.5345 89.3919 30.9961C91.5789 32.4577 93.2833 34.535 94.2896 36.9654C95.2958 39.3958 95.5586 42.07 95.0448 44.6498C94.531 47.2296 93.2636 49.599 91.403 51.4584C90.1692 52.694 88.704 53.6742 87.091 54.343C85.4781 55.0118 83.7491 55.356 82.003 55.356C80.257 55.356 78.528 55.0118 76.9151 54.343C75.3021 53.6742 73.8369 52.694 72.6031 51.4584Z" fill="white"/>
<path d="M37.7873 101.742C36.2691 103.263 33.834 103.855 30.9029 104.362C24.3176 105.484 18.5025 99.794 19.6855 93.1368C20.1371 90.6129 21.4724 87.0751 22.3035 86.244C22.4852 86.0658 22.6061 85.835 22.6491 85.5842C22.6921 85.3334 22.655 85.0754 22.543 84.847C22.4311 84.6185 22.25 84.4311 22.0255 84.3113C21.801 84.1916 21.5444 84.1457 21.2923 84.18C17.6098 84.6306 14.1838 86.3002 11.5599 88.923C5.04667 95.4417 4.43164 119.63 4.43164 119.63C4.43164 119.63 28.6339 119.015 35.1471 112.496C37.7781 109.875 39.4497 106.443 39.8928 102.756C39.9953 101.598 38.5852 100.908 37.7873 101.742Z" fill="#6366F1"/>
</svg>
