<svg width="124" height="124" viewBox="0 0 124 124" fill="none" xmlns="http://www.w3.org/2000/svg">
<path d="M123.983 39.4894C123.885 38.0288 122.682 36.8717 121.197 36.8717H101.099V3.80463C101.099 2.25366 99.8434 1 98.2939 1H25.7076C24.1582 1 22.903 2.25366 22.903 3.80463V36.8717H2.8077H2.80463C1.31956 36.8717 0.116477 38.0288 0.0183912 39.4894H0V95.841C0 97.3889 1.25519 98.6441 2.80463 98.6441H22.903V75.1741H30.546H93.454H101.097V98.6441H121.195C122.745 98.6441 124 97.3889 124 95.841V39.4894H123.983ZM93.4556 49.4358H30.546V11.4476C30.546 9.89666 31.8012 8.64301 33.3506 8.64301H90.6494C92.1988 8.64301 93.454 9.89666 93.454 11.4476L93.4556 49.4358Z" fill="black"/>
<path d="M30.7383 120.719C30.7383 122.27 31.9935 123.524 33.5429 123.524H90.457C92.0065 123.524 93.2617 122.27 93.2617 120.719V82.9563H30.7383V120.719Z" fill="#6366F1"/>
</svg>
