<svg width="124" height="123" viewBox="0 0 124 123" fill="none" xmlns="http://www.w3.org/2000/svg">
<path d="M123.983 38.4894C123.885 37.0288 122.682 35.8717 121.197 35.8717H101.099V2.80463C101.099 1.25366 99.8434 0 98.2939 0H25.7076C24.1582 0 22.903 1.25366 22.903 2.80463V35.8717H2.8077H2.80463C1.31956 35.8717 0.116477 37.0288 0.0183912 38.4894H0V94.841C0 96.3889 1.25519 97.6441 2.80463 97.6441H22.903V74.1741H30.546H93.454H101.097V97.6441H121.195C122.745 97.6441 124 96.3889 124 94.841V38.4894H123.983ZM93.4556 48.4358H30.546V10.4476C30.546 8.89666 31.8012 7.64301 33.3506 7.64301H90.6494C92.1988 7.64301 93.454 8.89666 93.454 10.4476L93.4556 48.4358Z" fill="white"/>
<path d="M30.7383 119.719C30.7383 121.27 31.9935 122.524 33.5429 122.524H90.457C92.0065 122.524 93.2617 121.27 93.2617 119.719V81.9565H30.7383V119.719Z" fill="#6366F1"/>
</svg>
