<svg width="124" height="125" viewBox="0 0 124 125" fill="none" xmlns="http://www.w3.org/2000/svg">
<path d="M41.6616 32.416C46.7496 32.416 49.8536 29.664 49.8536 25.6C49.8536 20.48 45.2456 19.328 42.6216 18.496C40.6696 17.888 39.0696 17.344 39.0696 15.68C39.0696 14.176 40.3816 13.216 42.1736 13.216C43.8376 13.216 44.8616 14.016 45.9496 15.744L49.7896 13.376C48.1256 10.752 45.8856 9.216 42.3976 9.216C37.6616 9.216 34.4936 11.872 34.4936 15.904C34.4936 19.296 36.7016 21.312 40.1576 22.208C42.9096 22.912 45.2776 23.616 45.2776 25.856C45.2776 27.392 43.9976 28.416 41.9176 28.416C39.9656 28.416 38.1096 27.424 36.9576 25.12L33.0856 27.584C35.0376 31.008 38.1096 32.416 41.6616 32.416ZM52.1469 32H60.1469C67.8909 32 71.6349 27.232 71.6349 20.832C71.6349 14.4 67.8909 9.6 60.1469 9.6H52.1469V32ZM56.6269 27.968V13.632H59.6029C64.9149 13.632 66.9949 16.768 66.9949 20.832C66.9949 24.896 64.9149 27.968 59.6029 27.968H56.6269ZM86.2459 32H91.9739L82.6619 20.096L91.3339 9.6H85.4779L78.5019 18.848V9.6H74.0219V32H78.5019V22.112L86.2459 32Z" fill="#A5B4FC"/>
<path d="M82.4824 81.506C79.2082 81.506 76.1278 79.7583 74.4616 76.9619L62.0043 56.2612L49.5663 76.9619C47.8808 79.7777 44.8004 81.5254 41.5262 81.5254C40.6544 81.5254 39.7826 81.4089 38.9495 81.1565L12.4074 73.5442V108.11C12.4074 110.965 14.3448 113.45 17.0959 114.13L58.982 124.636C60.9581 125.121 63.0311 125.121 64.9879 124.636L106.913 114.13C109.664 113.431 111.601 110.945 111.601 108.11V73.5442L85.0591 81.1371C84.226 81.3895 83.3542 81.506 82.4824 81.506ZM123.671 59.7178L113.694 39.7549C113.093 38.5509 111.795 37.8518 110.458 38.0266L62.0043 44.2213L79.7701 73.7578C80.5063 74.9812 81.9787 75.5638 83.3542 75.1754L121.695 64.2036C123.613 63.6404 124.543 61.5043 123.671 59.7178ZM10.3151 39.7549L0.337554 59.7178C-0.553639 61.5043 0.395676 63.6404 2.29431 64.1842L40.635 75.156C42.0106 75.5443 43.483 74.9618 44.2192 73.7384L62.0043 44.2213L13.5311 38.0266C12.1943 37.8712 10.9156 38.5509 10.3151 39.7549Z" fill="#71717A"/>
</svg>
