<svg width="112" height="100" viewBox="0 0 112 100" fill="none" xmlns="http://www.w3.org/2000/svg">
<path fill-rule="evenodd" clip-rule="evenodd" d="M55.9916 -3.74958e-06C25.1928 -3.74958e-06 0 25.1987 0 55.9936V77.9363C8.76605 66.0004 18.77 56.1194 29.8832 48.1083V38.6037C29.8938 37.5391 29.9587 36.5064 30.0768 35.4978C32.9339 37.7782 35.7243 40.0933 38.4315 42.4462C41.9555 40.3043 45.5754 38.3279 49.291 36.5141C43.6164 33.7392 37.7172 31.3408 31.605 29.3015C35.9314 18.1419 45.9848 12.5814 56.0265 12.593C66.0672 12.6037 76.0973 18.1845 80.3753 29.3034C46.3197 40.6605 18.8997 63.1675 0 100H34.8977C38.2263 84.8624 45.8076 71.7535 55.9916 59.8854C66.1747 71.7525 73.756 84.8624 77.0846 100H111.982C100.357 77.3459 85.509 60.1109 67.8772 47.5566C72.3033 43.416 77.0091 39.409 81.9104 35.493C82.0304 36.5518 82.0846 37.5391 82.0982 38.6018V48.1112C93.2103 56.1233 103.215 66.0072 111.982 77.945V55.9936C111.982 25.1938 86.7875 -3.74958e-06 55.9916 -3.74958e-06Z" fill="black"/>
</svg>