<svg width="24" height="21" viewBox="0 0 24 21" fill="none" xmlns="http://www.w3.org/2000/svg">
<path d="M8.10665 16.1187L3.55977 8.93971C3.4464 8.76076 3.38672 8.55777 3.38672 8.35114C3.38672 8.14451 3.4464 7.94153 3.55977 7.76258L8.10802 0.587317C8.22158 0.408566 8.38476 0.260193 8.58116 0.157101C8.77756 0.0540099 9.00027 -0.000171073 9.22691 4.05776e-07H18.3179C18.5446 -0.000171073 18.7673 0.0540099 18.9637 0.157101C19.1601 0.260193 19.3233 0.408566 19.4368 0.587317L24.0002 7.77008L21.7624 8.94721L17.5871 2.36051H9.98792L6.1856 8.35864L10.3609 14.9491L8.10802 16.1187H8.10665Z" fill="black"/>
<path d="M14.7732 20.0246H5.66303C5.43628 20.0245 5.21353 19.9701 5.01714 19.8668C4.82076 19.7635 4.65763 19.6149 4.54414 19.436L0 12.2633L2.23367 11.0874L6.40896 17.6778H14.0054L17.8036 11.6759L13.6324 5.09049L15.8661 3.91211L20.413 11.0874C20.5263 11.2663 20.586 11.4693 20.586 11.6759C20.586 11.8826 20.5263 12.0856 20.413 12.2645L15.8661 19.4435C15.7543 19.618 15.595 19.7632 15.4035 19.865C15.212 19.9668 14.9949 20.0218 14.7732 20.0246Z" fill="black"/>
</svg>
