<svg width="27" height="19" viewBox="0 0 27 19" fill="none" xmlns="http://www.w3.org/2000/svg">
<mask id="mask0_1122_15" style="mask-type:luminance" maskUnits="userSpaceOnUse" x="0" y="0" width="27" height="19">
<path d="M27 0H0V18.994H27V0Z" fill="white"/>
</mask>
<g mask="url(#mask0_1122_15)">
<path d="M23.958 13.1179C23.958 15.0204 22.9023 16.3814 21.0734 17.2887C19.231 18.2031 16.6481 18.6259 13.7443 18.6259C10.8406 18.6259 8.2408 18.2031 6.37928 17.2887C4.53126 16.3802 3.46094 15.018 3.46094 13.1179C3.46094 11.1881 4.55714 9.39964 6.41192 8.07668C8.26444 6.75492 10.844 5.9248 13.7095 5.9248C16.576 5.9248 19.1556 6.7561 21.0081 8.07906C22.8629 9.4032 23.958 11.1929 23.958 13.1179Z" fill="black"/>
<path d="M2.31678 9.85796C5.8879 12.1535 6.70949 15.9775 6.9042 17.7684C6.91156 17.8378 6.90513 17.9081 6.88531 17.9747C6.86549 18.0413 6.83271 18.1029 6.78908 18.1554C6.74544 18.2079 6.69191 18.2503 6.63189 18.2797C6.57187 18.3092 6.50669 18.3251 6.4405 18.3265H0.640961C0.636427 18.3269 0.631868 18.3265 0.627455 18.3253C0.626602 18.3247 0.625844 18.3239 0.625204 18.323C0.619164 18.3168 0.614875 18.309 0.612824 18.3004C0.61029 18.2915 0.61029 18.282 0.612824 18.2731C0.612824 18.2707 0.613949 18.2695 0.6162 18.2671C0.620043 18.2624 0.624608 18.2584 0.629706 18.2553L1.65163 17.6211L1.91049 17.4608L1.80357 17.1651L1.80132 17.158L1.79344 17.1354C1.74366 16.9942 1.69526 16.8525 1.64826 16.7102C1.55259 16.4205 1.41979 16.0096 1.27685 15.5262C0.98873 14.5572 0.660094 13.309 0.483395 12.1654C0.39741 11.6507 0.355972 11.1288 0.359593 10.6061C0.370848 10.143 0.442878 9.80927 0.559927 9.60144C0.661219 9.4245 0.796275 9.33068 1.03262 9.33305C1.30499 9.3378 1.72029 9.47319 2.31678 9.85796Z" fill="#454545"/>
<path d="M1.80218 17.1651L1.90798 17.4608L1.65024 17.6211L0.628317 18.2553C0.623219 18.2584 0.618654 18.2624 0.614811 18.2671C0.613351 18.2689 0.612206 18.2709 0.611435 18.2731C0.608901 18.282 0.608901 18.2915 0.611435 18.3004C0.61297 18.3093 0.616874 18.3175 0.62269 18.3241L0.626066 18.3253L0.639572 18.3265H6.43911C6.71035 18.3265 6.93432 18.0676 6.90281 17.7684C6.7081 15.9787 5.88763 12.1547 2.31539 9.85796C1.71665 9.47319 1.30247 9.3378 1.03236 9.33305C0.796012 9.33068 0.65983 9.4245 0.559663 9.60144C0.441489 9.80927 0.368334 10.1442 0.357079 10.6061C0.345824 11.0598 0.394219 11.5942 0.482006 12.1654C0.658705 13.309 0.988467 14.5572 1.27546 15.5262C1.43648 16.0667 1.6091 16.6032 1.79318 17.1354L1.79993 17.1591L1.80218 17.1651ZM1.80218 17.1651L1.79655 17.1675" stroke="#454545" stroke-width="0.631" stroke-linejoin="round"/>
<path d="M25.3343 17.1775L25.2443 17.453L25.4761 17.6122L26.4013 18.2463C26.4041 18.2479 26.4065 18.2501 26.4085 18.2528C26.4104 18.2554 26.4118 18.2585 26.4125 18.2618C26.4184 18.2835 26.4164 18.3068 26.4069 18.3271H21.1813C20.9968 18.3271 20.7683 18.1109 20.7998 17.763C20.9686 15.9721 21.7204 12.141 24.9348 9.84902C25.475 9.46424 25.8374 9.33836 26.0648 9.33361C26.1448 9.32912 26.2243 9.34978 26.2932 9.39299C26.3472 9.42862 26.4035 9.488 26.4542 9.58894C26.5633 9.79914 26.6297 10.14 26.6399 10.6055C26.6511 11.0627 26.6061 11.5995 26.5273 12.1731C26.3675 13.3167 26.0704 14.5672 25.8104 15.5363C25.6652 16.0768 25.5095 16.6141 25.3433 17.1478L25.3355 17.1704L25.3343 17.1751V17.1775L25.358 17.1858L25.3332 17.1775H25.3343Z" fill="#454545"/>
<path d="M25.3343 17.1775L25.2443 17.453L25.4761 17.6122L26.4013 18.2463C26.4041 18.2479 26.4065 18.2501 26.4085 18.2528C26.4104 18.2554 26.4118 18.2585 26.4125 18.2618C26.4184 18.2835 26.4164 18.3068 26.4069 18.3271H21.1813C20.9968 18.3271 20.7683 18.1109 20.7998 17.763C20.9686 15.9721 21.7204 12.141 24.9348 9.84902C25.475 9.46424 25.8374 9.33836 26.0648 9.33361C26.1448 9.32912 26.2243 9.34978 26.2932 9.39299C26.3472 9.42862 26.4035 9.488 26.4542 9.58894C26.5633 9.79914 26.6297 10.14 26.6399 10.6055C26.6511 11.0627 26.6061 11.5995 26.5273 12.1731C26.3675 13.3167 26.0704 14.5672 25.8104 15.5363C25.6652 16.0768 25.5095 16.6141 25.3433 17.1478L25.3355 17.1704L25.3343 17.1751V17.1775ZM25.3343 17.1775L25.358 17.1858L25.3332 17.1775H25.3343Z" stroke="#454545" stroke-width="0.631" stroke-linejoin="round"/>
<path fill-rule="evenodd" clip-rule="evenodd" d="M23.2497 4.009C23.2497 1.80606 21.5885 0.0187656 19.5435 0.0187656C18.3911 0.0187656 17.3601 0.586424 16.6815 1.47354C14.7476 1.01156 12.7404 1.01156 10.8065 1.47354C10.4621 1.02157 10.0264 0.656351 9.53132 0.404483C9.03621 0.152614 8.49409 0.0204375 7.94445 0.0175781C5.89947 0.0175781 4.23828 1.80606 4.23828 4.00781C4.23828 4.73223 4.41723 5.40558 4.72561 5.98868C4.42841 6.66529 4.27404 7.40194 4.27317 8.14768C4.27317 12.0275 8.51394 15.1686 13.744 15.1686C18.974 15.1686 23.2159 12.0275 23.2159 8.14768C23.2159 7.39358 23.0584 6.66916 22.7624 5.98868C23.0829 5.38376 23.2507 4.70206 23.2497 4.009ZM9.90839 3.79999C9.90839 5.14669 8.89435 6.23807 7.64395 6.23807C6.39243 6.23807 5.37838 5.14669 5.37838 3.79999C5.37838 2.45328 6.39243 1.36072 7.64395 1.36072C8.89435 1.36072 9.90839 2.45328 9.90839 3.79999ZM8.04574 3.76911C8.04664 3.88545 8.00378 3.99741 7.92657 4.08045C7.84935 4.16349 7.74407 4.21082 7.63382 4.21208C7.52357 4.21082 7.4183 4.16349 7.34108 4.08045C7.26386 3.99741 7.221 3.88545 7.2219 3.76911C7.22131 3.71141 7.23149 3.65415 7.25187 3.6006C7.27225 3.54704 7.30243 3.49825 7.34068 3.45701C7.37893 3.41577 7.4245 3.38288 7.4748 3.36022C7.5251 3.33756 7.57913 3.32558 7.63382 3.32496C7.68851 3.32558 7.74254 3.33756 7.79284 3.36022C7.84314 3.38288 7.88871 3.41577 7.92697 3.45701C7.96522 3.49825 7.99539 3.54704 8.01577 3.6006C8.03615 3.65415 8.04634 3.71141 8.04574 3.76911ZM19.7427 6.23807C20.9943 6.23807 22.0083 5.14669 22.0083 3.79999C22.0083 2.45328 20.9943 1.36072 19.7427 1.36072C18.4923 1.36072 17.4783 2.45328 17.4783 3.79999C17.4783 5.14669 18.4912 6.23807 19.7427 6.23807ZM19.7281 4.21326C19.8384 4.21201 19.9436 4.16467 20.0209 4.08163C20.0981 3.9986 20.1409 3.88663 20.14 3.7703C20.1406 3.7126 20.1304 3.65533 20.1101 3.60178C20.0897 3.54823 20.0595 3.49944 20.0213 3.4582C19.983 3.41695 19.9374 3.38406 19.8871 3.36141C19.8368 3.33875 19.7828 3.32677 19.7281 3.32615C19.6734 3.32677 19.6194 3.33875 19.5691 3.36141C19.5188 3.38406 19.4732 3.41695 19.435 3.4582C19.3967 3.49944 19.3665 3.54823 19.3462 3.60178C19.3258 3.65533 19.3156 3.7126 19.3162 3.7703C19.3153 3.88663 19.3581 3.9986 19.4354 4.08163C19.5126 4.16467 19.6179 4.21201 19.7281 4.21326Z" fill="#454545"/>
<mask id="mask1_1122_15" style="mask-type:luminance" maskUnits="userSpaceOnUse" x="4" y="0" width="20" height="16">
<path fill-rule="evenodd" clip-rule="evenodd" d="M23.2497 4.009C23.2497 1.80606 21.5885 0.0187656 19.5435 0.0187656C18.3911 0.0187656 17.3601 0.586424 16.6815 1.47354C14.7476 1.01156 12.7404 1.01156 10.8065 1.47354C10.4621 1.02157 10.0264 0.656351 9.53132 0.404483C9.03621 0.152614 8.49409 0.0204375 7.94445 0.0175781C5.89947 0.0175781 4.23828 1.80606 4.23828 4.00781C4.23828 4.73223 4.41723 5.40558 4.72561 5.98868C4.42841 6.66529 4.27404 7.40194 4.27317 8.14768C4.27317 12.0275 8.51394 15.1686 13.744 15.1686C18.974 15.1686 23.2159 12.0275 23.2159 8.14768C23.2159 7.39358 23.0584 6.66916 22.7624 5.98868C23.0829 5.38376 23.2507 4.70206 23.2497 4.009ZM9.90839 3.79999C9.90839 5.14669 8.89435 6.23807 7.64395 6.23807C6.39243 6.23807 5.37838 5.14669 5.37838 3.79999C5.37838 2.45328 6.39243 1.36072 7.64395 1.36072C8.89435 1.36072 9.90839 2.45328 9.90839 3.79999ZM8.04574 3.76911C8.04664 3.88545 8.00378 3.99741 7.92657 4.08045C7.84935 4.16349 7.74407 4.21082 7.63382 4.21208C7.52357 4.21082 7.4183 4.16349 7.34108 4.08045C7.26386 3.99741 7.221 3.88545 7.2219 3.76911C7.22131 3.71141 7.23149 3.65415 7.25187 3.6006C7.27225 3.54704 7.30243 3.49825 7.34068 3.45701C7.37893 3.41577 7.4245 3.38288 7.4748 3.36022C7.5251 3.33756 7.57913 3.32558 7.63382 3.32496C7.68851 3.32558 7.74254 3.33756 7.79284 3.36022C7.84314 3.38288 7.88871 3.41577 7.92697 3.45701C7.96522 3.49825 7.99539 3.54704 8.01577 3.6006C8.03615 3.65415 8.04634 3.71141 8.04574 3.76911ZM19.7427 6.23807C20.9943 6.23807 22.0083 5.14669 22.0083 3.79999C22.0083 2.45328 20.9943 1.36072 19.7427 1.36072C18.4923 1.36072 17.4783 2.45328 17.4783 3.79999C17.4783 5.14669 18.4912 6.23807 19.7427 6.23807ZM19.7281 4.21326C19.8384 4.21201 19.9436 4.16467 20.0209 4.08163C20.0981 3.9986 20.1409 3.88663 20.14 3.7703C20.1406 3.7126 20.1304 3.65533 20.1101 3.60178C20.0897 3.54823 20.0595 3.49944 20.0213 3.4582C19.983 3.41695 19.9374 3.38406 19.8871 3.36141C19.8368 3.33875 19.7828 3.32677 19.7281 3.32615C19.6734 3.32677 19.6194 3.33875 19.5691 3.36141C19.5188 3.38406 19.4732 3.41695 19.435 3.4582C19.3967 3.49944 19.3665 3.54823 19.3462 3.60178C19.3258 3.65533 19.3156 3.7126 19.3162 3.7703C19.3153 3.88663 19.3581 3.9986 19.4354 4.08163C19.5126 4.16467 19.6179 4.21201 19.7281 4.21326Z" fill="#414141"/>
</mask>
<g mask="url(#mask1_1122_15)">
<path d="M16.6768 1.4729L16.5192 2.20444L16.9514 2.30776L17.2294 1.94436L16.6779 1.4729H16.6768ZM10.8018 1.4729L10.2515 1.94792L10.5329 2.30895L10.9639 2.20206L10.8018 1.4729ZM4.72094 5.98923L5.36696 6.30156L5.51664 5.95716L5.34107 5.62464L4.72206 5.98923H4.72094ZM22.7577 5.98923L22.1387 5.62464L21.962 5.95716L22.1117 6.30156L22.7577 5.98923ZM19.5389 0.76748C21.1787 0.76748 22.5349 2.20682 22.5349 4.00955H23.9552C23.9552 1.40758 21.9901 -0.731234 19.5389 -0.731234V0.76748ZM17.2294 1.94436C17.5062 1.57805 17.8574 1.28319 18.2571 1.07929C18.6568 0.875385 19.0949 0.768826 19.5389 0.76748V-0.732422C18.883 -0.731264 18.2358 -0.574893 17.6449 -0.274823C17.0539 0.0252466 16.5342 0.461371 16.1242 1.00143L17.2294 1.94436ZM13.7404 1.87667C14.7083 1.87667 15.6425 1.99543 16.5204 2.20563L16.8344 0.743728C15.8188 0.500428 14.7807 0.377349 13.7393 0.376769L13.7404 1.87667ZM10.9639 2.20444C11.8741 1.98334 12.8065 1.87336 13.7404 1.87667L13.7393 0.375581C12.6656 0.375581 11.6234 0.500276 10.6398 0.743728L10.9639 2.20444ZM7.93978 0.76748C8.85704 0.76748 9.68988 1.22232 10.2515 1.94792L11.3522 1.00024C10.9412 0.46193 10.4217 0.027082 9.8314 -0.272648C9.24109 -0.572378 8.59487 -0.729447 7.93978 -0.732422V0.766292V0.76748ZM4.94378 4.00955C4.94378 2.20682 6.3011 0.76748 7.93978 0.76748V-0.732422C5.48851 -0.732422 3.52344 1.40521 3.52344 4.00836L4.94378 4.00955ZM5.34107 5.62464C5.07948 5.13117 4.94266 4.57497 4.94378 4.00955L3.52344 4.00836C3.52344 4.86341 3.73503 5.66383 4.1008 6.355L5.34107 5.62464ZM4.97867 8.14823C4.97867 7.50694 5.1126 6.88941 5.36696 6.30156L4.07492 5.67808C3.73953 6.45 3.5572 7.2813 3.5572 8.14823H4.97867ZM13.7393 14.4186C11.252 14.4186 9.03148 13.6704 7.45132 12.4995C5.86779 11.3274 4.97867 9.77758 4.97867 8.14823H3.5572C3.5572 10.3987 4.78846 12.3594 6.63423 13.7262C8.48338 15.0943 10.9966 15.9173 13.7393 15.9173V14.4186ZM22.5011 8.14823C22.5011 9.77758 21.612 11.3274 20.0284 12.4995C18.4472 13.6716 16.2266 14.4186 13.7393 14.4186V15.9173C16.4832 15.9173 18.9975 15.0943 20.8444 13.7251C22.6902 12.3582 23.9214 10.3975 23.9214 8.14704L22.5011 8.14823ZM22.1117 6.30156C22.3672 6.88822 22.5011 7.50694 22.5011 8.14823L23.9214 8.14704C23.9214 7.28012 23.7391 6.45 23.4037 5.67808L22.1117 6.30156ZM22.5349 4.00955C22.5349 4.60096 22.3885 5.14843 22.1376 5.62464L23.3778 6.355C23.7575 5.63825 23.9563 4.83063 23.9552 4.00955H22.5349ZM7.63928 6.98679C9.29597 6.98679 10.6139 5.54389 10.6139 3.79816H9.19355C9.19355 4.74465 8.48451 5.48688 7.63928 5.48688V6.98679ZM4.66354 3.79935C4.66354 5.54508 5.98259 6.98679 7.63928 6.98679V5.48688C6.79405 5.48688 6.08388 4.74584 6.08388 3.79935H4.66354ZM7.63928 0.609533C5.98259 0.609533 4.66354 2.05243 4.66354 3.79935H6.08388C6.08388 2.85167 6.79293 2.10825 7.63928 2.10825V0.61072V0.609533ZM10.6139 3.79816C10.6139 2.05243 9.29597 0.609533 7.63928 0.609533V2.10825C8.48338 2.10825 9.19355 2.85048 9.19355 3.79816H10.6139ZM7.62915 4.96198C7.77714 4.96151 7.92359 4.93025 8.06011 4.86999C8.19664 4.80973 8.32056 4.72165 8.42479 4.61079C8.52901 4.49993 8.61149 4.36847 8.66751 4.22393C8.72353 4.0794 8.75198 3.92462 8.75124 3.76847H7.3309C7.3309 3.61409 7.45132 3.46208 7.62915 3.46208V4.96079V4.96198ZM6.50706 3.76847C6.50646 3.92452 6.53503 4.07917 6.59111 4.22357C6.64719 4.36797 6.7297 4.49929 6.83391 4.61002C6.93812 4.72076 7.06199 4.80873 7.19845 4.86892C7.3349 4.9291 7.48125 4.96032 7.62915 4.96079V3.46208C7.8081 3.46208 7.9274 3.61409 7.9274 3.76966L6.50706 3.76847ZM7.62915 2.57496C7.48116 2.57543 7.33471 2.60669 7.19818 2.66695C7.06166 2.72721 6.93774 2.81529 6.83351 2.92615C6.72928 3.03701 6.6468 3.16847 6.59079 3.31301C6.53477 3.45754 6.50632 3.61232 6.50706 3.76847L7.9274 3.76966C7.9274 3.92404 7.8081 4.07368 7.62915 4.07368V2.57496ZM8.75124 3.76847C8.75198 3.61232 8.72353 3.45754 8.66751 3.31301C8.61149 3.16847 8.52901 3.03701 8.42479 2.92615C8.32056 2.81529 8.19664 2.72721 8.06011 2.66695C7.92359 2.60669 7.77714 2.57543 7.62915 2.57496V4.07368C7.55133 4.07463 7.4763 4.04308 7.42043 3.98591C7.36456 3.92874 7.33238 3.85058 7.3309 3.76847H8.75124ZM21.2946 3.79816C21.2946 4.74465 20.5855 5.48688 19.7392 5.48688V6.98679C21.3959 6.98679 22.7149 5.54389 22.7149 3.79816H21.2946ZM19.7381 2.10943C20.5833 2.10943 21.2935 2.85167 21.2935 3.79935H22.7138C22.7138 2.05362 21.3948 0.61072 19.7381 0.61072V2.10943ZM18.1849 3.79935C18.1849 2.85167 18.894 2.10943 19.7381 2.10943V0.61072C18.0814 0.61072 16.7635 2.05243 16.7635 3.79935H18.1849ZM19.7381 5.48807C18.894 5.48807 18.1849 4.74584 18.1849 3.79935H16.7635C16.7635 5.54508 18.0814 6.98797 19.7381 6.98797V5.48807ZM19.4252 3.76966C19.4252 3.61527 19.5456 3.46326 19.7234 3.46326V4.96198C19.8713 4.96151 20.0177 4.93029 20.1541 4.8701C20.2906 4.80992 20.4145 4.72194 20.5187 4.61121C20.6229 4.50048 20.7054 4.36916 20.7615 4.22476C20.8176 4.08036 20.8461 3.92571 20.8455 3.76966H19.4252ZM19.7234 4.07486C19.6456 4.07582 19.5706 4.04427 19.5147 3.9871C19.4589 3.92993 19.4267 3.85177 19.4252 3.76966H20.8455C20.8463 3.6135 20.8178 3.45873 20.7618 3.31419C20.7058 3.16966 20.6233 3.0382 20.5191 2.92734C20.4149 2.81648 20.2909 2.7284 20.1544 2.66814C20.0179 2.60787 19.8714 2.57662 19.7234 2.57615V4.07486ZM20.0228 3.76966C20.0228 3.92404 19.9024 4.07486 19.7234 4.07486V2.57615C19.5754 2.57662 19.429 2.60787 19.2925 2.66814C19.1559 2.7284 19.032 2.81648 18.9278 2.92734C18.8236 3.0382 18.7411 3.16966 18.6851 3.31419C18.6291 3.45873 18.6006 3.6135 18.6013 3.76966H20.0228ZM19.7234 3.46326C19.9024 3.46326 20.0228 3.61409 20.0228 3.76966H18.6013C18.6008 3.92571 18.6293 4.08036 18.6854 4.22476C18.7415 4.36916 18.824 4.50048 18.9282 4.61121C19.0324 4.72194 19.1563 4.80992 19.2927 4.8701C19.4292 4.93029 19.5755 4.96151 19.7234 4.96198V3.46326Z" fill="#414141"/>
</g>
</g>
</svg>
